<?xml version="1.0" encoding="UTF-8"?>
<svg width="60px" height="60px" viewBox="0 0 60 60" version="1.1" xmlns="http://www.w3.org/2000/svg" xmlns:xlink="http://www.w3.org/1999/xlink">
    <title>AffurmIt</title>
    <defs>
        <linearGradient x1="49.9989433%" y1="0%" x2="49.9989433%" y2="99.9760651%" id="linearGradient-1">
            <stop stop-color="#7B9D63" offset="0%"></stop>
            <stop stop-color="#7B9D63" offset="25%"></stop>
            <stop stop-color="#6B714B" offset="100%"></stop>
        </linearGradient>
    </defs>
    <g id="AffurmIt" stroke="none" stroke-width="1" fill="none" fill-rule="evenodd">
        <path d="M58.747414,35.4511545 C58.8181384,35.4511545 58.8779165,35.4769092 58.9267501,35.5284192 C58.9755836,35.5799292 59,35.6447598 59,35.722913 C59,35.8010661 58.9755836,35.8667848 58.9267501,35.920071 C58.8779165,35.9733573 58.8181384,36 58.747414,36 C58.6733217,36 58.6118598,35.9733573 58.5630262,35.920071 C58.5141927,35.8667848 58.4897763,35.8010661 58.4897763,35.722913 C58.4897763,35.6447598 58.5141927,35.5799292 58.5630262,35.5284192 C58.6118598,35.4769092 58.6733217,35.4511545 58.747414,35.4511545 Z M36.6052442,35.4511545 C36.6759686,35.4511545 36.7357467,35.4769092 36.7845802,35.5284192 C36.8334138,35.5799292 36.8578302,35.6447598 36.8578302,35.722913 C36.8578302,35.8010661 36.8334138,35.8667848 36.7845802,35.920071 C36.7357467,35.9733573 36.6759686,36 36.6052442,36 C36.5311519,36 36.4696899,35.9733573 36.4208564,35.920071 C36.3720228,35.8667848 36.3476064,35.8010661 36.3476064,35.722913 C36.3476064,35.6447598 36.3720228,35.5799292 36.4208564,35.5284192 C36.4696899,35.4769092 36.5311519,35.4511545 36.6052442,35.4511545 Z M16.0004811,35.4511545 C16.0712055,35.4511545 16.1309836,35.4769092 16.1798172,35.5284192 C16.2286507,35.5799292 16.2530671,35.6447598 16.2530671,35.722913 C16.2530671,35.8010661 16.2286507,35.8667848 16.1798172,35.920071 C16.1309836,35.9733573 16.0712055,36 16.0004811,36 C15.9263889,36 15.8649269,35.9733573 15.8160933,35.920071 C15.7672598,35.8667848 15.7428434,35.8010661 15.7428434,35.722913 C15.7428434,35.6447598 15.7672598,35.5799292 15.8160933,35.5284192 C15.8649269,35.4769092 15.9263889,35.4511545 16.0004811,35.4511545 Z M42.3464037,34 C42.5528035,34 42.7296521,34.0516361 42.8769545,34.1549099 C43.024257,34.2581837 43.1314246,34.4037883 43.1984604,34.591728 L42.981477,34.591728 C42.928554,34.459612 42.8478475,34.3563397 42.7393553,34.2819081 C42.6308631,34.2074766 42.4998805,34.1702614 42.3464037,34.1702614 C42.2105678,34.1702614 42.0884056,34.2037551 41.9799134,34.2707435 C41.8714212,34.3377319 41.7863045,34.4340263 41.724561,34.5596295 C41.6628174,34.6852328 41.6319461,34.8308374 41.6319461,34.9964476 C41.6319461,35.1620578 41.6628174,35.3071972 41.724561,35.4318701 C41.7863045,35.556543 41.8714212,35.6523722 41.9799134,35.7193606 C42.0884056,35.786349 42.2105678,35.8198427 42.3464037,35.8198427 C42.4998805,35.8198427 42.6308631,35.7830926 42.7393553,35.7095915 C42.8478475,35.6360903 42.928554,35.5342136 42.981477,35.4039584 L43.1984604,35.4039584 C43.1314246,35.5900373 43.023816,35.7342463 42.8756315,35.8365897 C42.7274469,35.9389331 42.5510394,35.990104 42.3464037,35.990104 C42.1770499,35.990104 42.0235754,35.9477717 41.8859755,35.8631058 C41.7483755,35.7784399 41.6398849,35.6607468 41.5605004,35.5100228 C41.4811158,35.3592989 41.4414241,35.1881089 41.4414241,34.9964476 C41.4414241,34.8047863 41.4811158,34.6331311 41.5605004,34.4814768 C41.6398849,34.3298225 41.7483755,34.2116641 41.8859755,34.1269982 C42.0235754,34.0423323 42.1770499,34 42.3464037,34 Z M6.90040895,34.0223294 L7.92446476,35.660746 L7.92446476,34.0223294 L8.10969449,34.0223294 L8.10969449,35.973357 L7.92446476,35.973357 L6.90040895,34.3321492 L6.90040895,35.973357 L6.71517922,35.973357 L6.71517922,34.0223294 L6.90040895,34.0223294 Z M48.7389945,34.0195382 L48.7389945,34.181426 L47.9583834,34.181426 L47.9583834,34.9099213 L48.6596103,34.9099213 L48.6596103,35.0718092 L47.9583834,35.0718092 L47.9583834,35.8114692 L48.7389945,35.8114692 L48.7389945,35.973357 L47.7731537,35.973357 L47.7731537,34.0195382 L48.7389945,34.0195382 Z M57.5992302,34.0223294 L57.5992302,34.1842172 L57.0858792,34.1842172 L57.0858792,35.973357 L56.9006495,35.973357 L56.9006495,34.1842172 L56.3846524,34.1842172 L56.3846524,34.0223294 L57.5992302,34.0223294 Z M26.5968246,34.0195382 L26.5968246,34.181426 L25.8162136,34.181426 L25.8162136,34.9099213 L26.5174405,34.9099213 L26.5174405,35.0718092 L25.8162136,35.0718092 L25.8162136,35.8114692 L26.5968246,35.8114692 L26.5968246,35.973357 L25.6309839,35.973357 L25.6309839,34.0195382 L26.5968246,34.0195382 Z M33.3526582,34.0223294 L33.3526582,35.973357 L33.1674284,35.973357 L33.1674284,34.0223294 L33.3526582,34.0223294 Z M49.7584797,34.0223294 L50.3644455,35.7612281 L50.9757036,34.0223294 L51.1715179,34.0223294 L50.4702911,35.973357 L50.2586,35.973357 L49.5573731,34.0223294 L49.7584797,34.0223294 Z M53.0165985,34.0195382 L53.0165985,34.181426 L52.2359875,34.181426 L52.2359875,34.9099213 L52.9372143,34.9099213 L52.9372143,35.0718092 L52.2359875,35.0718092 L52.2359875,35.8114692 L53.0165985,35.8114692 L53.0165985,35.973357 L52.0507578,35.973357 L52.0507578,34.0195382 L53.0165985,34.0195382 Z M5.69304787,34.0223294 L5.69304787,35.973357 L5.50781814,35.973357 L5.50781814,34.0223294 L5.69304787,34.0223294 Z M9.31705557,34.0223294 L9.31705557,34.9350419 L10.1188357,34.0223294 L10.3543421,34.0223294 L9.48905461,34.9964476 L10.3622805,35.973357 L10.1188357,35.973357 L9.31705557,35.0718092 L9.31705557,35.973357 L9.13182584,35.973357 L9.13182584,34.0223294 L9.31705557,34.0223294 Z M30.8744287,34.0195382 L30.8744287,34.181426 L30.0938177,34.181426 L30.0938177,34.9099213 L30.7950445,34.9099213 L30.7950445,35.0718092 L30.0938177,35.0718092 L30.0938177,35.8114692 L30.8744287,35.8114692 L30.8744287,35.973357 L29.9085879,35.973357 L29.9085879,34.0195382 L30.8744287,34.0195382 Z M14.8522973,34.0223294 L14.8522973,34.1842172 L14.3389464,34.1842172 L14.3389464,35.973357 L14.1537166,35.973357 L14.1537166,34.1842172 L13.6377195,34.1842172 L13.6377195,34.0223294 L14.8522973,34.0223294 Z M46.7510224,34.0223294 L46.7510224,35.973357 L46.5657926,35.973357 L46.5657926,34.0223294 L46.7510224,34.0223294 Z M55.494828,34.0223294 L55.494828,35.973357 L55.3095983,35.973357 L55.3095983,34.0223294 L55.494828,34.0223294 Z M19.2165023,34.0223294 C19.403497,34.0223294 19.5459461,34.067918 19.6438537,34.1590967 C19.7417614,34.2502753 19.7907145,34.3684337 19.7907145,34.5135752 C19.7907145,34.6345265 19.7598431,34.7326817 19.6980996,34.8080436 C19.636356,34.8834056 19.5569727,34.9359721 19.4599471,34.9657447 C19.5640291,34.9862134 19.6522328,35.0420363 19.724561,35.1332149 C19.7968891,35.2243936 19.8330527,35.330457 19.8330527,35.4514083 C19.8330527,35.5500301 19.8096787,35.6388814 19.76293,35.717965 C19.7161813,35.7970485 19.6478234,35.859384 19.5578542,35.9049734 C19.467885,35.9505627 19.3602765,35.973357 19.2350253,35.973357 L18.5946596,35.973357 L18.5946596,34.0223294 L19.2165023,34.0223294 Z M3.29492422,34.0223294 L3.29492422,34.8987567 L4.29781092,34.8987567 L4.29781092,34.0223294 L4.48304065,34.0223294 L4.48304065,35.973357 L4.29781092,35.973357 L4.29781092,35.0606445 L3.29492422,35.0606445 L3.29492422,35.973357 L3.10969449,35.973357 L3.10969449,34.0223294 L3.29492422,34.0223294 Z M2.21457782,34.0223294 L2.21457782,34.1842172 L1.70122685,34.1842172 L1.70122685,35.973357 L1.51599711,35.973357 L1.51599711,34.1842172 L1,34.1842172 L1,34.0223294 L2.21457782,34.0223294 Z M21.7416406,34.0195382 L21.7416406,34.181426 L20.9610296,34.181426 L20.9610296,34.9099213 L21.6622564,34.9099213 L21.6622564,35.0718092 L20.9610296,35.0718092 L20.9610296,35.8114692 L21.7416406,35.8114692 L21.7416406,35.973357 L20.7757999,35.973357 L20.7757999,34.0195382 L21.7416406,34.0195382 Z M39.9562184,34.0474499 L40.6283377,35.973357 L40.4325235,35.973357 L40.271109,35.5100228 L39.4296368,35.5100228 L39.2682223,35.973357 L39.072408,35.973357 L39.7471734,34.0474499 L39.9562184,34.0474499 Z M44.3528987,34.0223294 L44.3528987,34.8987567 L45.3557854,34.8987567 L45.3557854,34.0223294 L45.5410152,34.0223294 L45.5410152,35.973357 L45.3557854,35.973357 L45.3557854,35.0606445 L44.3528987,35.0606445 L44.3528987,35.973357 L44.167669,35.973357 L44.167669,34.0223294 L44.3528987,34.0223294 Z M22.8934328,34.0223294 L22.8934328,35.8142603 L23.5576137,35.8142603 L23.5576137,35.973357 L22.708203,35.973357 L22.708203,34.0223294 L22.8934328,34.0223294 Z M12.7478951,34.0223294 L12.7478951,35.973357 L12.5626654,35.973357 L12.5626654,34.0223294 L12.7478951,34.0223294 Z M35.4570604,34.0223294 L35.4570604,34.1842172 L34.9437094,34.1842172 L34.9437094,35.973357 L34.7584797,35.973357 L34.7584797,34.1842172 L34.2424826,34.1842172 L34.2424826,34.0223294 L35.4570604,34.0223294 Z M24.6088525,34.0223294 L24.6088525,35.973357 L24.4236228,35.973357 L24.4236228,34.0223294 L24.6088525,34.0223294 Z M27.6163098,34.0223294 L28.2222757,35.7612281 L28.8335338,34.0223294 L29.0293481,34.0223294 L28.3281212,35.973357 L28.1164301,35.973357 L27.4152033,34.0223294 L27.6163098,34.0223294 Z M19.2138561,35.0466887 L18.7798893,35.0466887 L18.7798893,35.808678 L19.2217946,35.808678 C19.3558663,35.808678 19.4603877,35.7751843 19.535362,35.7081959 C19.6103364,35.6412075 19.6478229,35.5490998 19.6478229,35.4318701 C19.6478229,35.3146404 19.6085723,35.2211371 19.5300698,35.1513575 C19.4515672,35.0815779 19.3461638,35.0466887 19.2138561,35.0466887 Z M39.8503729,34.2930728 L39.4852057,35.348135 L40.2155401,35.348135 L39.8503729,34.2930728 Z M19.2032716,34.1870084 L18.7798893,34.1870084 L18.7798893,34.8848008 L19.21121,34.8848008 C19.3364612,34.8848008 19.4330443,34.8536331 19.5009622,34.7912966 C19.5688801,34.7289602 19.6028386,34.6429 19.6028386,34.5331134 C19.6028386,34.4251877 19.5688801,34.340523 19.5009622,34.279117 C19.4330443,34.2177109 19.3338151,34.1870084 19.2032716,34.1870084 Z M21.9423638,24 L21.9423638,27.6877637 C21.9423638,28.4416353 22.113521,28.990153 22.4558406,29.3333333 C22.7981602,29.6765137 23.2618939,29.8481013 23.8470556,29.8481013 C24.420514,29.8481013 24.8740075,29.6765137 25.2075497,29.3333333 C25.5410919,28.990153 25.7078604,28.4416353 25.7078604,27.6877637 L25.7078604,24 L25.8834081,24 L25.8834081,27.6877637 C25.8834081,28.4753907 25.7034736,29.0576634 25.3435991,29.4345992 C24.9837247,29.8115349 24.4848818,30 23.8470556,30 C23.2092293,30 22.703072,29.8101285 22.3285686,29.4303797 C21.9540651,29.050631 21.7668161,28.4697648 21.7668161,27.6877637 L21.7668161,24 L21.9423638,24 Z M57,24.1132075 L57,24.885788 L55.3835699,24.885788 L55.3835699,29.8867925 L54.3874994,29.8867925 L54.3874994,24.885788 L52.7623318,24.885788 L52.7623318,24.1132075 L57,24.1132075 Z M50.5829596,24.1132075 L50.5829596,29.8867925 L49.6143498,29.8867925 L49.6143498,24.1132075 L50.5829596,24.1132075 Z M35.3159413,24.1132075 L37.4549548,28.640695 L39.5852018,24.1132075 L40.6547085,24.1132075 L40.6547085,29.8867925 L39.6553334,29.8867925 L39.6553334,25.9325098 L37.7968463,29.8867925 L37.1042968,29.8867925 L35.2370433,25.9325098 L35.2370433,29.8867925 L34.2376682,29.8867925 L34.2376682,24.1132075 L35.3159413,24.1132075 Z M29.9852346,24 C30.6703523,24 31.1797533,24.1477258 31.5134529,24.4431818 C31.8471525,24.7386378 32.0139998,25.1427933 32.0139998,25.6556604 C32.0139998,26.1295049 31.8722534,26.5085749 31.5887564,26.7928816 C31.3052594,27.0771884 30.9006917,27.2472124 30.375041,27.3029588 L32.058296,29.8867925 L31.836815,29.8867925 L30.1712786,27.3196827 L28.6031937,27.3196827 L28.6031937,29.8867925 L28.426009,29.8867925 L28.426009,24 L29.9852346,24 Z M19.4663677,24 L19.4663677,24.1505146 L16.6154448,24.1505146 L16.6154448,26.8681389 L19.2023934,26.8681389 L19.2023934,27.0186535 L16.6154448,27.0186535 L16.6154448,29.8867925 L16.4394619,29.8867925 L16.4394619,24 L19.4663677,24 Z M14.2600897,24.1132075 L14.2600897,24.885788 L11.640225,24.885788 L11.640225,26.5887878 L13.6828314,26.5887878 L13.6828314,27.3613683 L11.640225,27.3613683 L11.640225,29.8867925 L10.6278027,29.8867925 L10.6278027,24.1132075 L14.2600897,24.1132075 Z M6.3682255,24.1132075 L8.56950673,29.8867925 L7.5086483,29.8867925 L7.06662396,28.7088484 L4.49404228,28.7088484 L4.05201794,29.8867925 L3,29.8867925 L5.20128123,24.1132075 L6.3682255,24.1132075 Z M5.78475336,25.2579701 L4.77693786,27.937378 L6.78372838,27.937378 L5.78475336,25.2579701 Z M46.9506726,26.490566 L46.9506726,27.2830189 L43.3183857,27.2830189 L43.3183857,26.490566 L46.9506726,26.490566 Z M29.9852346,24.1672384 L28.6031937,24.1672384 L28.6031937,27.1608062 L30.0029531,27.1608062 C30.6112904,27.1608062 31.0675365,27.0242295 31.3717051,26.751072 C31.6758738,26.4779146 31.8279558,26.112781 31.8279558,25.6556604 C31.8279558,24.6633741 31.2137216,24.1672384 29.9852346,24.1672384 Z" id="Combined-Shape" fill="url(#linearGradient-1)"></path>
    </g>
</svg>