<?xml version="1.0" encoding="UTF-8"?>
<svg width="513px" height="277px" viewBox="0 0 513 277" version="1.1" xmlns="http://www.w3.org/2000/svg" xmlns:xlink="http://www.w3.org/1999/xlink">
    <!-- Generator: Sketch 52.6 (67491) - http://www.bohemiancoding.com/sketch -->
    <title>Path</title>
    <desc>Created with Sketch.</desc>
    <defs>
        <linearGradient x1="0%" y1="50%" x2="137.601657%" y2="50%" id="linearGradient-1">
            <stop stop-color="#FFFFFF" offset="0%"></stop>
            <stop stop-color="#EFEFEF" offset="25%"></stop>
            <stop stop-color="#D8DDC0" offset="100%"></stop>
        </linearGradient>
    </defs>
    <g id="Page-2" stroke="none" stroke-width="1" fill="none" fill-rule="evenodd">
        <g id="next" transform="translate(256.000000, 138.500000) rotate(-270.000000) translate(-256.000000, -138.500000) translate(117.000000, -118.000000)" fill="url(#linearGradient-1)">
            <path d="M271.425,241.951 L34.609,5.79 C26.85,-1.943 14.288,-1.93 6.542,5.83 C-1.198,13.589 -1.178,26.158 6.582,33.897 L229.302,256.002 L6.574,478.106 C-1.185,485.846 -1.205,498.407 6.534,506.167 C10.417,510.057 15.504,512.002 20.591,512.002 C25.665,512.002 30.732,510.07 34.608,506.207 L271.425,270.052 C275.162,266.334 277.259,261.274 277.259,256.002 C277.259,250.73 275.156,245.676 271.425,241.951 Z" id="Path"></path>
        </g>
    </g>
</svg>