<?xml version="1.0" encoding="UTF-8"?>
<svg width="60px" height="60px" viewBox="0 0 60 60" version="1.1" xmlns="http://www.w3.org/2000/svg" xmlns:xlink="http://www.w3.org/1999/xlink">
    <!-- Generator: Sketch 52.6 (67491) - http://www.bohemiancoding.com/sketch -->
    <title>Education</title>
    <desc>Created with Sketch.</desc>
    <defs>
        <linearGradient x1="49.9989433%" y1="0%" x2="49.9989433%" y2="99.9760651%" id="linearGradient-1">
            <stop stop-color="#7B9D63" offset="0%"></stop>
            <stop stop-color="#7B9D63" offset="25%"></stop>
            <stop stop-color="#6B714B" offset="100%"></stop>
        </linearGradient>
    </defs>
    <g id="Education" stroke="none" stroke-width="1" fill="none" fill-rule="evenodd">
        <path d="M53.9975787,15.0198547 C53.9943099,15.0198547 53.9910412,15.0198547 53.9878935,15.0198547 L50.7046005,15.0198547 L50.7046005,13.896368 C50.722276,13.4516949 50.4346247,13.0520581 50.0072639,12.927845 C47.727845,12.3305085 45.3806295,12.0309927 43.0242131,12.0368039 C39.1501211,12.0368039 33.8716707,12.9084746 29.968523,16.8794189 C26.094431,12.8697337 20.7772397,12.0368039 16.9128329,12.0368039 C14.5564165,12.0309927 12.209201,12.3305085 9.92978208,12.927845 C9.50242131,13.0520581 9.21476998,13.4516949 9.23244552,13.896368 L9.23244552,15.0101695 L5.968523,15.0101695 C5.43365617,15.0101695 5,15.4438257 5,15.9786925 L5,46.9133172 C5,47.448184 5.43365617,47.8818402 5.968523,47.8818402 C6.13486683,47.8813559 6.29830508,47.8380145 6.44309927,47.7559322 C6.53995157,47.7075061 16.2251816,42.4096852 29.7457627,45.8188862 L29.8910412,45.8188862 L29.9782082,45.8188862 C30.0554479,45.8282082 30.133414,45.8282082 30.2106538,45.8188862 C43.7699758,42.3806295 53.4552058,47.6687651 53.5133172,47.7559322 C53.812954,47.9289346 54.1822034,47.9289346 54.4818402,47.7559322 C54.779661,47.5840194 54.9640436,47.2669492 54.9661017,46.9230024 L54.9661017,15.9883777 C54.9661017,15.4535109 54.5325666,15.0198547 53.9975787,15.0198547 Z M6.937046,45.3733656 L6.937046,16.9569007 L9.25181598,16.9569007 L9.25181598,41.2474576 C9.24576271,41.7823245 9.67445521,42.2208232 10.209322,42.2268765 C10.2616223,42.2274818 10.3139225,42.2238499 10.3656174,42.2159806 C12.3692494,41.9100484 14.3921308,41.748184 16.4188862,41.7317191 C19.2263923,41.6830508 22.022155,42.1053269 24.6900726,42.9811138 C18.6652542,42.2525424 12.5541162,43.0760291 6.937046,45.3733656 Z M16.4188862,39.8043584 C14.6572639,39.8083535 12.8976998,39.9215496 11.1501211,40.1433414 L11.1501211,14.6615012 C13.0358354,14.2414044 14.9615012,14.0269976 16.8934625,14.022276 C20.5157385,14.022276 25.5133172,14.8552058 28.9806295,18.7680387 L29.0096852,42.8939467 C26.9951574,41.5767554 23.062954,39.8043584 16.4188862,39.8043584 Z M30.9467312,18.7680387 C34.4140436,14.8939467 39.4116223,14.022276 43.0338983,14.022276 C44.9657385,14.0279661 46.8914044,14.2422518 48.7772397,14.6615012 L48.7772397,40.1433414 C47.0394673,39.9194915 45.2895884,39.8030266 43.5375303,39.7946731 C36.9322034,39.7946731 32.9903148,41.5670702 30.9467312,42.8842615 L30.9467312,18.7680387 Z M53.0193705,45.3733656 C47.3903148,43.0697337 41.2651332,42.2461259 35.2276029,42.9811138 C37.9081114,42.1021792 40.7171913,41.6797821 43.5375303,41.7317191 C45.5769976,41.7430993 47.612954,41.9016949 49.62954,42.2062954 C50.1583535,42.2865617 50.6521792,41.9228814 50.7324455,41.3940678 C50.7403148,41.3423729 50.7439467,41.2900726 50.7433414,41.2377724 L50.7433414,16.9569007 L53.0581114,16.9569007 L53.0193705,45.3733656 Z" id="Shape" fill="url(#linearGradient-1)" fill-rule="nonzero"></path>
    </g>
</svg>