<?xml version="1.0" encoding="UTF-8"?>
<svg width="60px" height="60px" viewBox="0 0 60 60" version="1.1" xmlns="http://www.w3.org/2000/svg" xmlns:xlink="http://www.w3.org/1999/xlink">
    <!-- Generator: Sketch 52.6 (67491) - http://www.bohemiancoding.com/sketch -->
    <title>Help</title>
    <desc>Created with Sketch.</desc>
    <defs>
        <linearGradient x1="49.9989433%" y1="0%" x2="49.9989433%" y2="99.9760651%" id="linearGradient-1">
            <stop stop-color="#7B9D63" offset="0%"></stop>
            <stop stop-color="#7B9D63" offset="25%"></stop>
            <stop stop-color="#6B714B" offset="100%"></stop>
        </linearGradient>
    </defs>
    <g id="Help" stroke="none" stroke-width="1" fill="none" fill-rule="evenodd">
        <path d="M54.7651606,39.1032208 C54.9063253,39.2432121 54.9855422,39.4332857 54.9855422,39.6313247 C54.9855422,39.8293636 54.9062249,40.0193377 54.7650602,40.159329 L42.1251004,52.6941299 C41.978012,52.8399957 41.785241,52.9128788 41.5925703,52.9128788 C41.3998996,52.9128788 41.2071285,52.8398961 41.0600402,52.6941299 L33.4308233,45.1283247 C33.2896586,44.9883333 33.2103414,44.7983593 33.2103414,44.6003203 C33.2103414,44.4022814 33.2896586,44.2123074 33.4308233,44.072316 L34.7125502,42.8012424 C33.2863454,41.3869913 31.8161647,40.6452165 29.9926707,39.8281688 C28.1550201,40.6514892 26.711747,41.3743463 25.2727912,42.8012424 L26.5545181,44.072316 C26.8485944,44.3638485 26.8485944,44.8366926 26.5545181,45.1283247 L18.9253012,52.6941299 C18.7783133,52.8399957 18.5855422,52.9128788 18.3928715,52.9128788 C18.2002008,52.9128788 18.0074297,52.8399957 17.8604418,52.6941299 L5.22058233,40.1592294 C4.92650602,39.867697 4.92650602,39.3948528 5.22058233,39.1032208 L13.9466867,30.4497446 L14.7996988,23.9028095 C14.8183735,22.5492944 15.5832329,21.2508398 16.8053213,20.5043853 C17.7965863,19.8989177 18.9158635,19.7690823 19.9395582,20.1271255 C20.4958835,19.7037662 21.1722892,19.5069221 21.840261,19.5383853 C21.7608434,17.8714329 23.1971888,16.4515065 24.873996,16.5311602 C24.836245,15.7498571 25.1175703,14.9561082 25.7178715,14.3607965 C26.84749,13.2405671 28.6856426,13.2405671 29.815261,14.3607965 L29.9925703,14.536632 C31.7890562,12.5581342 35.2416667,13.7902771 35.1116466,16.5296667 C36.7881526,16.4483203 38.2240964,17.8771082 38.1453815,19.5365931 C39.825,19.4577359 41.2556225,20.8840346 41.1768072,22.544316 C43.5610442,22.4283203 45.0758032,25.2193853 43.6444779,27.125697 C44.8972892,28.5970996 45.7866466,30.1651818 47.1400602,31.5414978 L48.8483936,33.235632 C49.1424699,33.5271645 49.1424699,34.0000087 48.8483936,34.2916407 C48.5543173,34.5832727 48.0776104,34.5832727 47.7834337,34.2916407 L46.6034137,33.1214286 L35.0283133,44.6002208 L39.1575301,48.6951169 L50.7325301,37.2162251 L50.2523092,36.7400952 C49.9582329,36.4485628 49.9582329,35.9757186 50.2523092,35.6840866 C50.5463855,35.3924545 51.0230924,35.3924545 51.3172691,35.6840866 L54.7651606,39.1032208 Z M41.3154618,24.0344372 C41.1289157,24.0737662 40.9423695,24.1129957 40.7557229,24.1524242 C41.3670683,24.7586883 41.9828313,25.3608701 42.5879518,25.9732078 C42.9840361,25.0874589 42.2903614,24.035632 41.3154618,24.0344372 Z M38.2826305,21.0267143 C37.9304217,21.0308961 37.6222892,21.1483853 37.3580321,21.3791818 C38.1763052,21.7713766 38.9079317,22.3375152 39.5553213,22.9648874 C39.9502008,22.0762511 39.2664659,21.0279091 38.2826305,21.0267143 Z M17.862751,26.565632 L18.8463855,25.5898745 L19.8301205,24.614316 L19.6529116,24.4385801 C19.3817269,24.1696494 19.0254016,24.0351342 18.6691767,24.0351342 C18.3129518,24.0351342 17.9567269,24.1696494 17.6854418,24.4385801 C17.1429719,24.9765411 17.1429719,25.8518355 17.6854418,26.3897965 L17.862751,26.565632 Z M26.7828313,15.4168052 C26.2403614,15.9547662 26.2403614,16.8300606 26.7827309,17.3680216 L26.9600402,17.5438571 L28.9276104,15.5926407 L28.7503012,15.4168052 C28.4791165,15.1478745 28.1227912,15.0133593 27.7665663,15.0133593 C27.4103414,15.0133593 27.0541165,15.1478745 26.7828313,15.4168052 Z M23.3428715,19.3996883 C23.3428715,19.7681861 23.4875502,20.1146797 23.7503012,20.3752468 L23.9276104,20.5510823 L24.9114458,19.5755238 L25.8951807,18.5999654 L25.7178715,18.4241299 C25.4466867,18.1551991 25.0903614,18.020684 24.7341365,18.020684 C24.3779116,18.020684 24.0216867,18.1551991 23.7504016,18.4241299 C23.4875502,18.684697 23.3428715,19.0311905 23.3428715,19.3996883 Z M21.7016064,21.0279091 C21.3452811,21.0279091 20.9891566,21.1623247 20.7177711,21.431355 C20.1753012,21.969316 20.1753012,22.8446104 20.7177711,23.3825714 L20.8950803,23.5584069 L22.8626506,21.6071905 L22.6853414,21.431355 C22.414257,21.1624242 22.0578313,21.0279091 21.7016064,21.0279091 Z M17.5950803,21.7759567 C16.8788153,22.2134545 16.3955823,22.9653853 16.3176707,23.7361342 C16.8841365,22.9564242 17.8416667,22.49971 18.8090361,22.54571 C18.7908635,22.1699437 18.846988,21.7914892 18.9764056,21.4334459 C18.3825301,21.3749004 17.8828313,21.6003203 17.5950803,21.7759567 Z M18.3928715,51.1100173 L19.7631526,49.7511255 L8.18825301,38.2723333 L6.81797189,39.6312251 L18.3928715,51.1100173 Z M33.3486948,39.6920606 C34.2668675,40.2576017 35.0190763,40.9929048 35.7776104,41.7449351 L45.5386546,32.0650216 C44.1864458,30.7241515 43.3629518,29.0323074 42.0758032,27.6127792 C41.8549197,27.367645 38.5889558,24.1155844 38.5889558,24.1155844 C37.5957831,23.1305671 36.3527108,22.3045584 34.8993976,22.3045584 L29.5491968,22.3045584 C27.8374498,22.3045584 27.9677711,24.402039 29.3569277,24.8097662 L33.12751,25.9172511 C33.9504016,26.1586017 34.7068273,26.604961 35.3146586,27.2077403 L38.9276104,30.7906623 C39.0687751,30.9306537 39.1480924,31.1206277 39.1480924,31.3186667 C39.1480924,31.5167056 39.0687751,31.7066797 38.92751,31.846671 L36.2211847,34.5304026 C35.9272088,34.8220346 35.4504016,34.8220346 35.1563253,34.5304026 C34.862249,34.2387706 34.862249,33.766026 35.1564257,33.4743939 L37.3302209,31.3186667 L34.2495984,28.2637489 C33.8188755,27.8365065 33.2830321,27.5202814 32.6998996,27.3492251 L28.9661647,26.2525931 C25.7266064,25.625619 26.2708835,20.8109524 29.5490964,20.8109524 C30.0329317,20.8109524 36.0148594,20.7304026 36.0148594,20.9029524 C36.0148594,20.7118831 36.0883534,20.5207143 36.2353414,20.3749481 C37.5044177,19.116619 35.5373494,17.165303 34.2680723,18.4240303 C33.973996,18.7156623 33.4972892,18.7156623 33.2031124,18.4240303 C33.0561245,18.2782641 32.9826305,18.0870952 32.9826305,17.896026 C32.9826305,17.7049567 33.0561245,17.5137879 33.2031124,17.3680216 C34.4619478,16.1197489 32.4899598,14.1721169 31.235241,15.4164069 L18.3951807,28.1498442 C18.1069277,28.4358009 17.6232932,28.4404805 17.3288153,28.1483506 C16.8209839,27.6448398 16.2558233,27.1655238 15.9815261,26.4866753 L15.4073293,30.8935152 C15.3859438,31.0571039 15.3106426,31.2091429 15.1929719,31.3258355 L14.4470884,32.0655195 L15.1926707,32.8049048 C15.486747,33.0964372 15.486747,33.5692814 15.1926707,33.8609134 C14.8986948,34.1525455 14.4218876,34.1525455 14.1278112,33.8609134 L13.3822289,33.1215281 L9.25311245,37.2163247 L20.8283133,48.6950173 L24.9574297,44.6001212 L16.7406627,36.4516494 C16.4465863,36.1601169 16.4465863,35.6872727 16.7406627,35.3956407 C17.0346386,35.1040087 17.5114458,35.1040087 17.8055221,35.3956407 L24.2081325,41.7450346 C25.864257,40.1026753 27.5997992,39.3537316 29.6577309,38.3332684 C30.8323293,37.7542857 31.7245984,36.877697 32.6379518,35.9719351 C32.9320281,35.680303 33.4087349,35.680303 33.7029116,35.9719351 C33.996988,36.2634675 33.996988,36.7363117 33.7029116,37.0279437 C33.0523092,37.673039 32.4188755,38.3334675 31.6689759,38.8688398 C32.2540161,39.0884848 32.8175703,39.364684 33.3486948,39.6920606 Z M41.5927711,51.1100173 L53.1677711,39.6313247 L51.79749,38.2724329 L40.2225904,49.7512251 L41.5927711,51.1100173 Z M29.9927711,10.0931515 C29.5769076,10.0931515 29.239759,9.75880519 29.239759,9.34639827 L29.239759,7.81973593 C29.239759,7.407329 29.5769076,7.07298268 29.9927711,7.07298268 C30.4087349,7.07298268 30.7457831,7.407329 30.7457831,7.81973593 L30.7457831,9.34639827 C30.7457831,9.75880519 30.4087349,10.0931515 29.9927711,10.0931515 Z M25.7464859,10.3692511 L25.1295181,8.97063203 C24.9628514,8.59277489 25.1366466,8.15248918 25.5176707,7.98720779 C25.8986948,7.82182684 26.3426707,7.99427706 26.5093373,8.3721342 L27.1262048,9.77085281 C27.2928715,10.14871 27.1190763,10.5889957 26.7380522,10.7542771 C26.6398594,10.7967922 26.5374498,10.8170043 26.436747,10.8170043 C26.1465863,10.8170043 25.8701807,10.6497316 25.7464859,10.3692511 Z M22.9590361,12.6944416 L21.8287149,11.6579481 C21.5233936,11.3778658 21.5047189,10.9054199 21.7870482,10.6026364 C22.0694779,10.2998528 22.5457831,10.2812338 22.8512048,10.561316 L23.9815261,11.5978095 C24.2868474,11.8778918 24.3055221,12.3503377 24.0231928,12.6531212 C23.8746988,12.8122294 23.6726908,12.8928788 23.4700803,12.8928788 C23.287249,12.8928788 23.1039157,12.8272641 22.9590361,12.6944416 Z M33.24749,10.7541775 C32.8664659,10.5888961 32.6926707,10.1486104 32.8592369,9.77085281 L33.4761044,8.3721342 C33.6427711,7.99417749 34.0870482,7.82202597 34.4677711,7.98710823 C34.8487952,8.15229004 35.0225904,8.59257576 34.8560241,8.9704329 L34.2391566,10.3691515 C34.1154618,10.649632 33.8389558,10.8169048 33.5487952,10.8169048 C33.447992,10.8169048 33.3456827,10.7967922 33.24749,10.7541775 Z M36.5154618,12.8928788 C36.3128514,12.8928788 36.1108434,12.8122294 35.9623494,12.6531212 C35.6799197,12.3502381 35.6986948,11.8777922 36.0040161,11.5978095 L37.1344378,10.561316 C37.439759,10.2812338 37.9161647,10.2998528 38.1985944,10.6026364 C38.4810241,10.9055195 38.462249,11.3779654 38.1569277,11.6579481 L37.026506,12.6944416 C36.8816265,12.8272641 36.6982932,12.8928788 36.5154618,12.8928788 Z M21.0292363,45.4963126 C20.5732246,45.6032098 20.1161704,45.3232691 20.0083773,44.8710476 C19.9005842,44.418826 20.1828712,43.9655708 20.6388829,43.8586736 C21.0948947,43.7517764 21.5519488,44.0317171 21.659742,44.4839387 C21.7675351,44.9361602 21.4852481,45.3894155 21.0292363,45.4963126 Z" id="Combined-Shape" fill="url(#linearGradient-1)" fill-rule="nonzero"></path>
    </g>
</svg>