<?xml version="1.0" encoding="UTF-8"?>
<svg width="60px" height="60px" viewBox="0 0 60 60" version="1.1" xmlns="http://www.w3.org/2000/svg" xmlns:xlink="http://www.w3.org/1999/xlink">
    <!-- Generator: Sketch 52.6 (67491) - http://www.bohemiancoding.com/sketch -->
    <title>Mentoring</title>
    <desc>Created with Sketch.</desc>
    <defs>
        <linearGradient x1="49.9989433%" y1="0%" x2="49.9989433%" y2="99.9760651%" id="linearGradient-1">
            <stop stop-color="#7B9D63" offset="0%"></stop>
            <stop stop-color="#7B9D63" offset="25%"></stop>
            <stop stop-color="#6B714B" offset="100%"></stop>
        </linearGradient>
    </defs>
    <g id="Mentoring" stroke="none" stroke-width="1" fill="none" fill-rule="evenodd">
        <path d="M39.2105263,16.4042293 C36.3078947,16.4042293 33.9473684,14.0437346 33.9473684,11.141142 C33.9473684,8.23854945 36.3078947,5.87805484 39.2105263,5.87805484 C42.1131579,5.87805484 44.4736842,8.23854945 44.4736842,11.141142 C44.4736842,14.0437346 42.1131579,16.4042293 39.2105263,16.4042293 Z M39.2105263,7.63241724 C37.2754386,7.63241724 35.7017544,9.20608032 35.7017544,11.141142 C35.7017544,12.177093 36.1614035,13.0998877 36.877193,13.7428615 C37.7026316,13.599881 38.3333333,12.8832239 38.3333333,12.0183232 L40.0877193,12.0183232 C40.0877193,13.0542742 39.6280702,13.9770689 38.9122807,14.6200427 C39.0122807,14.6279373 39.1078947,14.6498669 39.2105263,14.6498669 C41.145614,14.6498669 42.7192982,13.0762038 42.7192982,11.141142 C42.7192982,9.20608032 41.145614,7.63241724 39.2105263,7.63241724 Z M12.0175439,26.9304037 C9.11491228,26.9304037 6.75438596,24.5699091 6.75438596,21.6673165 C6.75438596,18.7647239 9.11491228,16.4042293 12.0175439,16.4042293 C14.9201754,16.4042293 17.2807018,18.7647239 17.2807018,21.6673165 C17.2807018,24.5699091 14.9201754,26.9304037 12.0175439,26.9304037 Z M12.0175439,18.1585917 C10.0824561,18.1585917 8.50877193,19.7322547 8.50877193,21.6673165 C8.50877193,23.6023782 10.0824561,25.1760413 12.0175439,25.1760413 C12.1201754,25.1760413 12.2157895,25.1541117 12.3157895,25.1462171 C11.6,24.5032433 11.1403509,23.5804487 11.1403509,22.5444977 L12.8947368,22.5444977 C12.8947368,23.4093983 13.5254386,24.1260554 14.3508772,24.2690359 C15.0666667,23.6260621 15.5263158,22.7032675 15.5263158,21.6673165 C15.5263158,19.7322547 13.9526316,18.1585917 12.0175439,18.1585917 Z M54.4,6.80084946 C54.7587719,6.92014611 55,7.25435214 55,7.63241724 C55,8.01048234 54.7587719,8.34468838 54.4,8.4648622 L49.7368421,10.0192273 L49.7368421,12.0183232 L52.3684211,12.0183232 C52.8535088,12.0183232 53.245614,12.4104232 53.245614,12.8955044 L53.245614,18.1585917 C53.245614,20.5769802 51.2780702,22.5444977 48.8596491,22.5444977 L44.4736842,22.5444977 L44.4736842,26.0532225 L47.9824561,26.0532225 C50.4008772,26.0532225 52.3684211,28.0207399 52.3684211,30.4391285 L52.3684211,37.4565781 L54.122807,37.4565781 L54.122807,39.2109405 L51.4912281,39.2109405 L47.1052632,39.2109405 L41.8421053,39.2109405 L41.8421053,43.5968465 C41.8421053,44.0819277 41.45,44.4740277 40.9649123,44.4740277 L36.5789474,44.4740277 L31.3157895,44.4740277 L31.3157895,48.8599337 C31.3157895,49.3450149 30.9236842,49.7371149 30.4385965,49.7371149 L24.2982456,49.7371149 L19.9122807,49.7371149 L18.1578947,49.7371149 L18.1578947,54.1230209 C18.1578947,54.6081021 17.7657895,55.0002021 17.2807018,55.0002021 L13.7719298,55.0002021 L9.38596491,55.0002021 L5,55.0002021 L5,53.2458397 L8.50877193,53.2458397 L8.50877193,42.7196653 L5.87719298,42.7196653 C5.39210526,42.7196653 5,42.3275653 5,41.8424841 L5,32.1934909 C5,29.7751023 6.96754386,27.8075849 9.38596491,27.8075849 L16.4035088,27.8075849 C16.4973684,27.8075849 16.5912281,27.8233741 16.6807018,27.8523211 L21.627193,29.5005446 L27.1657895,27.1277694 L29.6535088,22.1515205 C29.7078947,22.0436272 29.7842105,21.9480144 29.8763158,21.8699453 L35.1394737,17.4840393 C35.2973684,17.3533393 35.4964912,17.2814105 35.7017544,17.2814105 L47.9824561,17.2814105 L47.9824561,12.8955044 L47.9824561,5.87805484 C47.9824561,5.59647967 48.1175439,5.33157095 48.3464912,5.1657837 C48.5763158,5.00087364 48.8684211,4.95526022 49.1368421,5.04648706 L54.4,6.80084946 Z M40.5464912,19.0357729 L39.6289474,19.0357729 L40.0877193,20.1831259 L40.5464912,19.0357729 Z M17.2807018,47.9827525 L19.0350877,47.9827525 L19.0350877,42.7196653 L14.6491228,42.7196653 L14.6491228,53.2458397 L16.4035088,53.2458397 L16.4035088,48.8599337 C16.4035088,48.3748525 16.795614,47.9827525 17.2807018,47.9827525 Z M20.7894737,47.9827525 L23.4210526,47.9827525 L23.4210526,40.9653029 C23.4210526,39.5144452 22.2403509,38.3337593 20.7894737,38.3337593 L16.4035088,38.3337593 C15.9184211,38.3337593 15.5263158,37.9416593 15.5263158,37.4565781 L15.5263158,33.0706721 C15.5263158,32.8162895 15.6368421,32.5750647 15.8280702,32.4066459 C16.0201754,32.2408587 16.2754386,32.1645439 16.527193,32.2013855 L22.395614,33.0399707 L28.2798246,30.0987822 L28.0140351,29.6996647 L27.4815789,28.9014298 L22.0122807,31.245258 C21.8157895,31.3285902 21.5929825,31.3399936 21.3894737,31.2706963 L16.2614035,29.5619473 L13.7719298,29.5619473 L13.7719298,35.7022157 L12.0175439,35.7022157 L12.0175439,29.5619473 L9.38596491,29.5619473 C7.93508772,29.5619473 6.75438596,30.7426332 6.75438596,32.1934909 L6.75438596,40.9653029 L8.50877193,40.9653029 L8.50877193,33.0706721 L10.2631579,33.0706721 L10.2631579,53.2458397 L12.8947368,53.2458397 L12.8947368,41.8424841 C12.8947368,41.3574029 13.2868421,40.9653029 13.7719298,40.9653029 L19.9122807,40.9653029 C20.3973684,40.9653029 20.7894737,41.3574029 20.7894737,41.8424841 L20.7894737,47.9827525 Z M30.4385965,42.7196653 L35.7017544,42.7196653 L35.7017544,24.2988601 L33.7166667,25.7883137 L30.2912281,30.925964 C30.2842105,30.935613 30.2710526,30.9391218 30.2640351,30.9487708 C30.1824561,31.0619271 30.0815789,31.1592942 29.9535088,31.2233285 L22.9359649,34.7320533 C22.7754386,34.8118768 22.5964912,34.8417009 22.4192982,34.8162627 L17.2807018,34.082062 L17.2807018,36.5793969 L20.7894737,36.5793969 C23.2078947,36.5793969 25.1754386,38.5469143 25.1754386,40.9653029 L25.1754386,47.9827525 L29.5614035,47.9827525 L29.5614035,43.5968465 C29.5614035,43.1117653 29.9535088,42.7196653 30.4385965,42.7196653 Z M46.2280702,37.4565781 L46.2280702,32.1934909 L41.8421053,32.1934909 L41.8421053,37.4565781 L46.2280702,37.4565781 Z M51.4912281,18.1585917 L51.4912281,13.7726857 L49.7368421,13.7726857 L49.7368421,18.1585917 C49.7368421,18.6436729 49.3447368,19.0357729 48.8596491,19.0357729 L42.4359649,19.0357729 L40.9026316,22.8699319 C40.7684211,23.2032607 40.4464912,23.4216789 40.0877193,23.4216789 C39.7289474,23.4216789 39.4070175,23.2032607 39.272807,22.8699319 L37.7394737,19.0357729 L36.0192982,19.0357729 L31.1403509,23.1006305 L28.8192982,27.7435506 L29.5614035,28.8575708 L32.3403509,24.6892057 C32.3947368,24.6058735 32.4640351,24.5330674 32.5438596,24.4742963 L36.0526316,21.8427527 C36.3175439,21.6427554 36.6745614,21.612054 36.9710526,21.7594205 C37.2684211,21.9085413 37.4561404,22.212046 37.4561404,22.5444977 L37.4561404,42.7196653 L40.0877193,42.7196653 L40.0877193,38.3337593 L40.0877193,31.3163097 C40.0877193,30.8312285 40.4798246,30.4391285 40.9649123,30.4391285 L47.1052632,30.4391285 C47.5903509,30.4391285 47.9824561,30.8312285 47.9824561,31.3163097 L47.9824561,37.4565781 L50.6140351,37.4565781 L50.6140351,30.4391285 C50.6140351,28.9882708 49.4333333,27.8075849 47.9824561,27.8075849 L43.5964912,27.8075849 C43.1114035,27.8075849 42.7192982,27.4154849 42.7192982,26.9304037 L42.7192982,21.6673165 C42.7192982,21.1822353 43.1114035,20.7901353 43.5964912,20.7901353 L48.8596491,20.7901353 C50.3105263,20.7901353 51.4912281,19.6094494 51.4912281,18.1585917 Z M49.7368421,8.16925214 L51.3491228,7.63241724 L49.7368421,7.09558235 L49.7368421,8.16925214 Z M26.0526316,9.38677964 L27.8070175,9.38677964 L27.8070175,11.141142 L26.0526316,11.141142 L26.0526316,9.38677964 Z M22.5438596,9.38677964 L24.2982456,9.38677964 L24.2982456,11.141142 L22.5438596,11.141142 L22.5438596,9.38677964 Z M19.0350877,9.38677964 L20.7894737,9.38677964 L20.7894737,11.141142 L19.0350877,11.141142 L19.0350877,9.38677964 Z" id="Combined-Shape" fill="url(#linearGradient-1)" fill-rule="nonzero"></path>
    </g>
</svg>