<?xml version="1.0" encoding="UTF-8"?>
<svg width="60px" height="60px" viewBox="0 0 60 60" version="1.1" xmlns="http://www.w3.org/2000/svg" xmlns:xlink="http://www.w3.org/1999/xlink">
    <!-- Generator: Sketch 52.6 (67491) - http://www.bohemiancoding.com/sketch -->
    <title>Mentoring</title>
    <desc>Created with Sketch.</desc>
    <defs>
        <linearGradient x1="49.9989433%" y1="0%" x2="49.9989433%" y2="99.9760651%" id="linearGradient-1">
            <stop stop-color="#7B9D63" offset="0%"></stop>
            <stop stop-color="#7B9D63" offset="25%"></stop>
            <stop stop-color="#6B714B" offset="100%"></stop>
        </linearGradient>
    </defs>
    <g id="Mentoring" stroke="none" stroke-width="1" fill="none" fill-rule="evenodd">
        <path d="M31.4597656,34.6058692 C31.7916992,35.0778785 31.6801758,35.7310374 31.2103516,36.064486 C31.0277344,36.1941168 30.8178711,36.256528 30.6100586,36.256528 C30.2832031,36.256528 29.9615234,36.1024626 29.7585937,35.8139579 C29.0750977,34.8421682 27.9612305,34.2620187 26.7791016,34.2620187 C26.7443359,34.2620187 26.7099609,34.2601542 26.6759766,34.2568178 C25.9256836,34.2332664 25.2073242,34.0815561 24.5414062,33.8221963 L19.6099609,40.9742664 C19.4154297,41.2564907 19.0955078,41.4248832 18.7538086,41.4248832 C18.4121094,41.4248832 18.0921875,41.2563925 17.8976562,40.9742664 L12.9663086,33.8221963 C12.3004883,34.0815561 11.5820312,34.2332664 10.8317383,34.2568178 C10.7977539,34.2601542 10.7633789,34.2620187 10.7286133,34.2620187 C8.71845703,34.2620187 7.08310547,35.9052196 7.08310547,37.925243 L7.08310547,43.0746589 L24.4450195,43.0746589 C25.0202148,43.0746589 25.4866211,43.5432336 25.4866211,44.1213224 C25.4866211,44.6994112 25.0202148,45.167986 24.4450195,45.167986 L6.04160156,45.167986 C5.46630859,45.167986 5,44.6994112 5,44.1213224 L5,37.9253411 C5,34.820285 7.45947266,32.2833084 10.5236328,32.1744813 C10.5576172,32.1711449 10.5919922,32.1692804 10.6267578,32.1692804 C12.8879883,32.1692804 14.75625,30.4506168 15.0083008,28.2452243 C13.0472656,26.8124159 11.6133789,24.2795607 11.2007812,21.2353458 C11.1259766,21.149972 11.0625,21.0522336 11.0171875,20.9409533 C10.8509766,20.5336121 10.7110352,20.1071355 10.6009766,19.6734953 C9.50712891,15.3632944 11.5320312,11.0104065 15.1146484,9.97031776 C15.472168,9.86629907 15.8445312,9.79760748 16.2245117,9.76542056 C17.240918,9.26622897 18.3162109,9.01324766 19.4245117,9.01324766 C23.7098633,9.01324766 27.1963867,12.7830421 27.1963867,17.4168785 C27.1963867,18.6218271 26.9654297,19.7853645 26.5099609,20.8752056 C26.4620117,20.9900187 26.3952148,21.0908972 26.315918,21.1775467 C26.0570312,23.1549813 25.3587891,24.9835514 24.2831055,26.4469766 C23.7511719,27.1705935 23.1509766,27.7746869 22.5004883,28.2507196 C22.7550781,30.4533645 24.6219727,32.1690841 26.88125,32.1690841 C26.9199219,32.1690841 26.9580078,32.1714393 26.9956055,32.1756589 C28.7717773,32.2434673 30.4283203,33.1395 31.4597656,34.6058692 Z M15.6925781,11.9809206 C13.321582,12.6693084 11.9612305,15.5721168 12.5014648,18.6069112 C13.1759766,17.7956636 13.6720703,16.8403598 13.937793,15.8145981 C14.0710937,15.2994112 14.5161133,14.9300467 15.0450195,14.8959953 C15.5707031,14.8626308 16.0575195,15.1699766 16.2542969,15.6620047 C16.3395508,15.8756355 16.4821289,16.0614953 16.6667969,16.1999579 C16.8825195,16.3617757 17.1401367,16.4473458 17.4114258,16.4473458 L22.8585937,16.4473458 C23.7025391,16.4473458 24.4817383,16.730257 25.1081055,17.2061916 C25.0075195,13.8238178 22.4973633,11.1061822 19.4241211,11.1061822 C18.5824219,11.1061822 17.7632812,11.3134346 16.9892578,11.7220514 C16.8537109,11.7935888 16.7044922,11.834215 16.5515625,11.8410841 C16.2547852,11.854528 15.9658203,11.9016308 15.6925781,11.9809206 Z M13.2499023,20.8448832 C13.4753906,22.6376355 14.1291992,24.2701402 15.1172852,25.4829393 C16.1357422,26.7331262 17.4271484,27.4217103 18.7536133,27.4217103 C20.1869141,27.4217103 21.5554687,26.6337196 22.6073242,25.202972 C23.7227539,23.685771 24.3392578,21.654757 24.3461914,19.480472 C24.0779297,18.9253458 23.512793,18.5406729 22.8584961,18.5406729 L17.4113281,18.5406729 C16.6875977,18.5406729 15.9993164,18.3114393 15.4207031,17.8775047 C15.4170898,17.8748551 15.4134766,17.8722056 15.4099609,17.8695561 C14.8958984,18.9911916 14.159668,20.0068458 13.2499023,20.8448832 Z M18.7537109,38.5404252 L22.7399414,32.759243 C21.6713867,31.868215 20.8921875,30.6398131 20.562207,29.2387009 C19.9779297,29.4208318 19.372168,29.5151355 18.7536133,29.5151355 C18.1317383,29.5151355 17.5264648,29.4181822 16.9460937,29.2356589 C16.6165039,30.6381449 15.8370117,31.8677243 14.7676758,32.7593411 L18.7537109,38.5404252 Z M49.4766602,37.9932477 C52.5405273,38.1024673 55,40.6395421 54.9998047,43.7442056 L54.9998047,49.9401869 C54.9998047,50.5182757 54.5333984,50.9868505 53.9582031,50.9868505 L28.5337891,50.9868505 C27.9585938,50.9868505 27.4921875,50.5182757 27.4921875,49.9401869 L27.4921875,43.7442056 C27.4921875,40.6393458 29.9515625,38.1021729 33.0154297,37.9930514 C33.0494141,37.989715 33.0837891,37.9878505 33.1185547,37.9878505 C35.3793945,37.9878505 37.2474609,36.2697757 37.5,34.0648738 C37.0626953,33.7466355 36.6474609,33.3735421 36.2629883,32.9446121 C35.3617188,31.9391636 34.6518555,30.6656215 34.1875,29.2481215 C34.0686523,29.4163178 33.9609375,29.5879486 33.8771484,29.7256262 C33.6761719,30.0558364 33.3091797,30.2476822 32.9260742,30.2244252 C32.5416992,30.2012664 32.2013672,29.9667336 32.0413086,29.6147383 C31.5382813,28.5089019 31.197168,27.3172991 31.0275391,26.0730981 C30.9646484,25.6393598 30.9257813,25.1838364 30.9100586,24.6891589 C30.8171875,21.7695701 31.6635742,18.9868738 33.2932617,16.8534112 C34.9703125,14.658028 37.272168,13.4047009 39.7746094,13.3243318 C40.9863281,13.2856682 42.1628906,13.5227523 43.2763672,14.030285 C43.3225586,14.0274393 43.6083984,14.017528 43.7233398,14.0222383 C45.890625,14.0430421 47.9365234,15.0499626 49.4862305,16.8592991 C50.9999023,18.6264393 51.8773438,20.9810888 51.9572266,23.4893131 C52.0384766,26.0461121 51.2831055,28.4870187 49.8298828,30.3624953 C49.6290039,30.6216589 49.3235352,30.7662056 49.0079102,30.7662056 C48.9050781,30.7662056 48.8011719,30.7507991 48.6996094,30.7192009 C48.3654297,30.6150841 48.1114258,30.3517009 48.012207,30.025514 C47.3189453,31.7275935 46.2671875,33.1271355 44.9916016,34.0605561 C45.2421875,36.267715 47.1111328,37.9880467 49.3735352,37.9880467 C49.4083008,37.9880467 49.4426758,37.9899112 49.4766602,37.9932477 Z M33.33125,27.0192757 C34.2032227,26.0765327 35.5913086,25.2906028 36.4172852,24.9773692 C37.2535156,24.6644299 38.1318359,24.4919159 39.0325195,24.4629673 C39.2161133,24.4570794 39.4023438,24.4573738 39.5858398,24.4636542 C40.8083984,24.5066355 41.9078125,23.9236402 42.453125,22.9437056 C42.6460938,22.5970093 42.8140625,22.2302944 42.9527344,21.8538645 C43.0512695,21.5859673 43.2543945,21.3702757 43.5151367,21.2567383 C43.7757813,21.1431028 44.0712891,21.1414346 44.3333008,21.2521262 C46.4015625,22.1261776 48.0944336,23.7915561 49.1000977,25.9416028 C49.2208984,26.1968411 49.3306641,26.4563972 49.4291016,26.7199766 C49.7558594,25.7328785 49.9101563,24.660014 49.8750977,23.5563364 C49.8104492,21.5243411 49.1116211,19.6310047 47.9074219,18.224986 C46.7510742,16.8750981 45.252832,16.1258692 43.6883789,16.1154673 C43.6728516,16.115271 43.1381836,16.1406869 43.118457,16.1412757 C42.9464844,16.1461822 42.7699219,16.1101682 42.6166992,16.0326449 C41.2461914,15.3386636 39.9036133,15.4146168 39.8412109,15.4166776 C37.9742188,15.4766355 36.2357422,16.4394953 34.9458984,18.1281308 C33.6085938,19.8786869 32.9148438,22.1851542 32.9923828,24.6224299 C33.0055664,25.0376215 33.0375977,25.4164065 33.090332,25.7802757 C33.1480469,26.202729 33.2285156,26.6161542 33.33125,27.0192757 Z M35.8936523,27.5889252 C36.6080078,30.8986822 38.7894531,33.2409673 41.2416016,33.2411636 C42.5680664,33.2411636 43.8594727,32.5526776 44.8779297,31.3023925 C45.9561523,29.979 46.6378906,28.156514 46.7976563,26.1706402 C46.8001953,26.1386495 46.8046875,26.1075421 46.8099609,26.0765327 C46.1994141,25.0704953 45.3874023,24.2415841 44.4374023,23.653486 C44.3837891,23.7585841 44.3283203,23.8627009 44.2712891,23.9652477 C43.343457,25.6325888 41.5248047,26.6246916 39.5136719,26.5555093 C39.3761719,26.5507009 39.2367188,26.5505047 39.0990234,26.5550187 C38.4245117,26.5767056 37.7683594,26.705257 37.1488281,26.9370421 C36.7087891,27.1041589 36.2885742,27.3230888 35.8936523,27.5889252 Z M39.4388672,35.0529533 C39.0206055,36.8354019 37.8736328,38.3371963 36.3319336,39.2230234 C36.9333008,41.4070234 38.9320313,42.9775093 41.2463867,42.9775093 C43.5605469,42.9775093 45.559375,41.4071215 46.1608398,39.2232196 C44.6189453,38.3371963 43.4719727,36.8355 43.0536133,35.0531495 C42.4717773,35.2366542 41.8650391,35.3341963 41.2416016,35.3341963 C40.6296875,35.3341963 40.0250977,35.2370467 39.4388672,35.0529533 Z M52.9168945,48.8938178 L52.9168945,43.7444019 C52.9168945,41.7244766 51.281543,40.0811776 49.2713867,40.0811776 C49.2366211,40.0811776 49.2022461,40.0793131 49.1682617,40.0759766 C48.809668,40.0647897 48.4580078,40.0251449 48.1162109,39.9574346 C47.2112305,42.9420841 44.4429688,45.0709346 41.2462891,45.0709346 C38.0496094,45.0709346 35.28125,42.9420841 34.3764648,39.9573364 C34.0345703,40.0250467 33.6829102,40.0646916 33.3242188,40.0759766 C33.2902344,40.0793131 33.2558594,40.0811776 33.2210938,40.0811776 C31.2109375,40.0811776 29.5755859,41.7245748 29.5755859,43.7444019 L29.5755859,48.8938178 L52.9168945,48.8938178 Z" id="Combined-Shape" fill="url(#linearGradient-1)" fill-rule="nonzero"></path>
    </g>
</svg>