<?xml version="1.0" encoding="UTF-8"?>
<svg width="60px" height="60px" viewBox="0 0 60 60" version="1.1" xmlns="http://www.w3.org/2000/svg" xmlns:xlink="http://www.w3.org/1999/xlink">
    <!-- Generator: Sketch 52.6 (67491) - http://www.bohemiancoding.com/sketch -->
    <title>Shop</title>
    <desc>Created with Sketch.</desc>
    <defs>
        <linearGradient x1="49.9989433%" y1="0%" x2="49.9989433%" y2="99.9760651%" id="linearGradient-1">
            <stop stop-color="#7B9D63" offset="0%"></stop>
            <stop stop-color="#7B9D63" offset="25%"></stop>
            <stop stop-color="#6B714B" offset="100%"></stop>
        </linearGradient>
    </defs>
    <g id="Shop" stroke="none" stroke-width="1" fill="none" fill-rule="evenodd">
        <path d="M54.6777845,21.9852299 C54.9264757,22.2288816 55.0418467,22.5815987 54.9862277,22.9286579 L50.3591066,48.6519688 C49.7165953,52.2609993 46.6762092,54.9139618 43.0791611,55.0041274 L16.9207647,55.0041274 C13.3339902,54.9440571 10.2872274,52.3119206 9.6408192,48.7148078 L5.01369814,22.9286579 C4.95807917,22.5815987 5.07345017,22.2288816 5.32214139,21.9852299 C5.50730181,21.670794 5.87738647,21.670794 6.24758922,21.670794 L19.5120659,21.670794 L19.5120659,15.6959104 C19.5120659,9.79096824 24.2076774,5.00412736 30.000081,5.00412736 C35.7924846,5.00412736 40.4880961,9.79096824 40.4880961,15.6959104 L40.4880961,21.670794 L53.7523366,21.670794 C54.0919548,21.6244472 54.4334624,21.7404948 54.6777845,21.9852299 Z M21.97973,15.6959104 L21.97973,21.670794 L38.0201959,21.670794 L38.0201959,15.6959104 C38.0201959,11.1804089 34.4294063,7.51985517 29.9999629,7.51985517 C25.5705195,7.51985517 21.97973,11.1804089 21.97973,15.6959104 Z M47.8913245,48.3374125 L52.2716437,24.1865218 L7.72828213,24.1865218 L12.1086014,48.3374125 C12.5241495,50.7212025 14.5460351,52.465166 16.9207647,52.4883995 L43.0791611,52.4883995 C45.4538907,52.465166 47.4757763,50.7210821 47.8913245,48.3374125 Z M39.254205,36.4506046 C38.572725,36.4506046 38.0201959,35.8874611 38.020314,35.1927407 L38.020314,31.419149 C38.020314,30.7244287 38.572725,30.1612851 39.254205,30.1612851 C39.9356851,30.1612851 40.4880961,30.7244287 40.4880961,31.419149 L40.4880961,35.1927407 C40.4880961,35.8874611 39.9356851,36.4506046 39.254205,36.4506046 Z M20.7458389,36.4506046 C20.0643588,36.4506046 19.5119478,35.8874611 19.5119478,35.1927407 L19.5119478,31.419149 C19.5119478,30.7244287 20.0643588,30.1612851 20.7458389,30.1612851 C21.427319,30.1612851 21.97973,30.7244287 21.97973,31.419149 L21.97973,35.1927407 C21.97973,35.8874611 21.427319,36.4506046 20.7458389,36.4506046 Z" id="Combined-Shape" fill="url(#linearGradient-1)" fill-rule="nonzero"></path>
    </g>
</svg>