<?xml version="1.0" encoding="UTF-8"?>
<svg width="60px" height="60px" viewBox="0 0 60 60" version="1.1" xmlns="http://www.w3.org/2000/svg" xmlns:xlink="http://www.w3.org/1999/xlink">
    <!-- Generator: Sketch 52.6 (67491) - http://www.bohemiancoding.com/sketch -->
    <title>Shop</title>
    <desc>Created with Sketch.</desc>
    <defs>
        <linearGradient x1="49.9989433%" y1="0%" x2="49.9989433%" y2="99.9760651%" id="linearGradient-1">
            <stop stop-color="#7B9D63" offset="0%"></stop>
            <stop stop-color="#7B9D63" offset="25%"></stop>
            <stop stop-color="#6B714B" offset="100%"></stop>
        </linearGradient>
    </defs>
    <g id="Shop" stroke="none" stroke-width="1" fill="none" fill-rule="evenodd">
        <path d="M54.7916992,13.7140426 C55,13.9228043 55,14.3404255 55,14.3404255 L50.8333008,31.0440043 C50.8333008,31.4615277 50.4166992,31.8791489 50,31.8791489 L19.5833008,36.0549702 C20.4166992,37.5165957 22.0833008,38.3517404 23.75,38.3517404 L47.5,38.3517404 C48.125,38.3517404 48.5416992,38.7693617 48.5416992,39.3957447 C48.5416992,40.0221277 48.125,40.4397489 47.5,40.4397489 L23.5416992,40.4397489 C20.2083984,40.4397489 17.0833984,37.934217 16.4583984,34.5935404 L11.4583984,9.1206 L6.04169922,9.1206 C5.41669922,9.1206 5,8.70297872 5,8.07659574 C5,7.45021277 5.41669922,7.03259149 6.04160156,7.03268936 L12.2916016,7.03268936 C12.7083008,7.03268936 13.3333008,7.45021277 13.3333008,7.86783404 L14.375,13.2964213 L53.9583984,13.2964213 C54.375,13.2964213 54.5833984,13.5052809 54.7916992,13.7140426 Z M48.9583008,30 L52.5,15.1755702 L14.7916016,15.1755702 L18.5416016,33.9670596 L48.9583008,30 Z M22.7083008,42.5276596 C25.625,42.5276596 27.9166992,44.8244298 27.9166016,47.7474851 C27.9166016,50.6705404 25.625,52.9673106 22.7083008,52.9673106 C19.7916992,52.9673106 17.5,50.6706383 17.5,47.7474851 C17.5,44.8244298 19.7916992,42.5276596 22.7083008,42.5276596 Z M22.7083008,50.8794 C24.375,50.8794 25.8333008,49.4177745 25.8333008,47.7474851 C25.8333008,46.0771957 24.375,44.6155702 22.7083008,44.6155702 C21.0416016,44.6155702 19.5833008,46.0771957 19.5833008,47.7474851 C19.5833008,49.4177745 21.0416016,50.8794 22.7083008,50.8794 Z M43.5416992,42.5276596 C46.4583008,42.5276596 48.75,44.8244298 48.75,47.7474851 C48.75,50.6705404 46.4583984,52.9673106 43.5416992,52.9673106 C40.6250977,52.9673106 38.3333984,50.6706383 38.3333984,47.7474851 C38.3333984,44.8244298 40.625,42.5276596 43.5416992,42.5276596 Z M43.5416992,50.8794 C45.2083008,50.8794 46.6666992,49.4177745 46.6666992,47.7474851 C46.6666992,46.0771957 45.2083984,44.6155702 43.5416992,44.6155702 C41.875,44.6155702 40.4166992,46.0771957 40.4166992,47.7474851 C40.4166992,49.4177745 41.875,50.8794 43.5416992,50.8794 Z" id="Combined-Shape" fill="url(#linearGradient-1)" fill-rule="nonzero"></path>
    </g>
</svg>