<?xml version="1.0" encoding="UTF-8"?>
<svg width="1759px" height="472px" viewBox="0 0 1759 472" version="1.1" xmlns="http://www.w3.org/2000/svg" xmlns:xlink="http://www.w3.org/1999/xlink">
    <!-- Generator: Sketch 52.6 (67491) - http://www.bohemiancoding.com/sketch -->
    <title>Powered-logo</title>
    <desc>Created with Sketch.</desc>
    <defs>
        <linearGradient x1="61.136325%" y1="165.413221%" x2="61.136325%" y2="-65.6481873%" id="linearGradient-1">
            <stop stop-color="#3CAEDB" offset="0%"></stop>
            <stop stop-color="#22FFF5" offset="51.5466944%"></stop>
            <stop stop-color="#3CAEDB" offset="100%"></stop>
        </linearGradient>
        <linearGradient x1="50%" y1="468.493006%" x2="50%" y2="-198.932218%" id="linearGradient-2">
            <stop stop-color="#3CAEDB" offset="0%"></stop>
            <stop stop-color="#22FFF5" offset="51.5466944%"></stop>
            <stop stop-color="#3CAEDB" offset="100%"></stop>
        </linearGradient>
        <linearGradient x1="50%" y1="270.376922%" x2="50%" y2="-303.327786%" id="linearGradient-3">
            <stop stop-color="#3CAEDB" offset="0%"></stop>
            <stop stop-color="#22FFF5" offset="51.5466944%"></stop>
            <stop stop-color="#3CAEDB" offset="100%"></stop>
        </linearGradient>
        <polygon id="path-4" points="1.00378566e-14 220 1.00378566e-14 0 220 0 220 220 0 220"></polygon>
        <linearGradient x1="50%" y1="100%" x2="50%" y2="0%" id="linearGradient-6">
            <stop stop-color="#3CAEDB" offset="0%"></stop>
            <stop stop-color="#22FFF5" offset="51.5466944%"></stop>
            <stop stop-color="#3CAEDB" offset="100%"></stop>
        </linearGradient>
    </defs>
    <g id="Page-1" stroke="none" stroke-width="1" fill="none" fill-rule="evenodd">
        <g id="Powered-logo">
            <g id="Atom" transform="translate(1238.000000, 0.000000)">
                <g id="3" transform="translate(67.000000, 0.000000)">
                    <path d="M28.8324528,347.242499 C27.5775366,347.082484 26.2984009,347 25,347 C22.8707132,347 20.7932379,347.221831 18.789424,347.643644 C21.1890102,294.510488 41.0368127,230.456673 77,168.166605 C148.442714,44.4241952 257.712098,-27.7213568 323.91343,10.5 C390.114761,48.7213568 382.269573,179.424195 310.826859,303.166605 C239.384145,426.909015 130.114761,499.054567 63.9134295,460.83321 C44.8014825,449.798922 31.8608982,431.056821 24.8402626,406.999584 C24.8934757,406.999861 24.9467217,407 25,407 C28.428724,407 31.7231025,406.424799 34.7919043,405.365629 C41.1863961,426.448382 52.5207498,442.708638 68.9134295,452.172956 C128.700007,486.690753 233.131011,417.739761 302.166605,298.166605 C371.202199,178.593449 378.700007,53.6780509 318.91343,19.160254 C259.126852,-15.3575428 154.695848,53.5934491 85.660254,173.166605 C50.5301175,234.013786 31.3351035,296.244334 28.8324483,347.242499 Z" id="Combined-Shape" fill="#3F424C" fill-rule="nonzero"></path>
                    <circle id="Oval" fill="#22FFF5" cx="25" cy="377" r="25"></circle>
                </g>
                <g id="2" transform="translate(85.000000, 0.000000)">
                    <path d="M49.3122316,20.1161712 C47.1167368,17.4091615 44.4592516,15.0920764 41.4597999,13.2849397 C42.9052105,12.3084366 44.3897066,11.3797218 45.9134295,10.5 C112.114761,-27.7213568 221.384145,44.4241952 292.826859,168.166605 C364.269573,291.909015 372.114761,422.611853 305.91343,460.83321 C239.712098,499.054567 130.442714,426.909015 59,303.166605 C7.66276065,214.247898 -10.835522,121.735133 7.38217412,62.5254884 C10.0456656,64.6361984 13.0759694,66.3041777 16.3619037,67.4182446 C0.172106718,123.321183 17.9852072,212.1269 67.660254,298.166605 C136.695848,417.739761 241.126852,486.690753 300.91343,452.172956 C360.700007,417.655159 353.202199,292.739761 284.166605,173.166605 C215.131011,53.5934491 110.700007,-15.3575428 50.9134295,19.160254 C50.3742254,19.4715637 49.8404942,19.7902261 49.3122316,20.1161712 Z" id="Combined-Shape" fill="#3F424C" fill-rule="nonzero"></path>
                    <circle id="Oval" fill="#0E6E93" cx="26" cy="39" r="25"></circle>
                </g>
                <g id="1" transform="translate(0.000000, 100.000000)">
                    <path d="M496.44664,93.6601418 C499.145897,91.5526689 501.475214,88.9933718 503.320885,86.0959588 C514.674911,101.333421 520.91343,118.023648 520.91343,135.666605 C520.91343,212.109319 403.798857,270.666605 260.91343,270.666605 C118.028002,270.666605 0.913429511,212.109319 0.913429511,135.666605 C0.913429511,59.2238914 118.028002,0.666604984 260.91343,0.666604984 C339.693154,0.666604984 410.63891,18.4671781 458.441293,47.2516335 C455.873698,49.4612308 453.684326,52.0980952 451.983525,55.0518788 C406.124536,27.9061958 337.545505,10.666605 260.91343,10.666605 C122.842242,10.666605 10.9134295,66.6310113 10.9134295,135.666605 C10.9134295,204.702199 122.842242,260.666605 260.91343,260.666605 C398.984617,260.666605 510.91343,204.702199 510.91343,135.666605 C510.91343,120.929737 505.813007,106.788503 496.44664,93.6601418 Z" id="Combined-Shape" fill="#3F424C" fill-rule="nonzero"></path>
                    <circle id="Oval" fill="#BC13AF" cx="478" cy="70" r="25"></circle>
                </g>
            </g>
            <g id="BlockLogo" transform="translate(1389.000000, 126.000000)">
                <path d="M131.123638,143.665482 C132.321077,141.162205 132.917477,138.366608 132.917477,135.294932 C132.917477,129.369658 130.636308,124.474464 126.080931,120.593108 C121.523234,116.614313 115.939823,114.612155 109.330698,114.612155 L109.326057,114.612155 C102.712291,114.614475 97.0731851,116.616633 92.4064189,120.593108 C87.9601116,124.583504 85.7346373,129.481018 85.7346373,135.294932 C85.7346373,135.596531 85.7462404,135.898131 85.7578435,136.197411 C85.864592,138.916448 86.4517088,141.410445 87.530797,143.665482 C88.7259161,146.18268 90.3828386,148.365797 92.4899612,150.244995 C94.5970839,152.124193 97.0731851,153.581151 99.9252267,154.61355 C102.770306,155.627389 105.907784,156.142428 109.330698,156.142428 C112.74665,156.142428 115.881808,155.627389 118.726887,154.61355 C121.578929,153.581151 124.057351,152.124193 126.164473,150.244995 C128.271596,148.365797 129.926198,146.18268 131.123638,143.665482 Z M95.1401089,68.6437263 C91.4874535,71.8290827 89.6657671,76.1535579 89.6657671,81.6357117 C89.6657671,81.7215516 89.6704083,81.8073915 89.6704083,81.8932314 C89.7284238,87.2385055 91.545469,91.5629806 95.1401089,94.8759369 C98.7834818,98.2422532 103.512905,99.9242513 109.326057,99.9242513 L109.330698,99.9242513 C115.139209,99.9242513 119.868632,98.2422532 123.514326,94.8759369 C127.164661,91.5119407 128.988668,87.1016256 128.988668,81.6357117 C128.988668,76.1535579 127.164661,71.8290827 123.514326,68.6437263 C119.868632,65.4606898 115.139209,63.8622116 109.330698,63.8622116 C103.515225,63.8622116 98.7834818,65.4606898 95.1401089,68.6437263 Z M127.083439,119.444709 C131.963702,123.599825 134.444444,128.933499 134.444444,135.294932 C134.444444,138.587008 133.79003,141.623885 132.499765,144.324362 C131.232707,146.992359 129.441188,149.368036 127.178584,151.384114 C124.925263,153.390911 122.254229,154.96155 119.244386,156.047308 C116.232221,157.123787 112.897491,157.666667 109.330698,157.666667 C105.759265,157.666667 102.419893,157.123787 99.4123697,156.049628 C96.3978848,154.96155 93.7291721,153.390911 91.4735298,151.384114 C89.2109256,149.368036 87.4194072,146.992359 86.1523489,144.319722 C84.9827566,141.876764 84.3399449,139.143807 84.2308758,136.197411 L71.1936344,136.197411 L69.6689873,136.197411 C69.6689873,136.183491 69.6666667,136.171891 69.6666667,136.155651 C69.6666667,129.993738 71.3166273,124.388624 74.6258309,119.31247 C77.9303934,114.250235 82.6598163,110.232 88.8164203,107.269363 L88.8164203,106.587284 C84.254082,103.624647 80.580541,99.9799312 77.7841943,95.6415361 C74.9948095,91.3170609 73.5977964,86.753626 73.5977964,81.9674714 L73.5977964,81.8932314 L75.1247642,81.8932314 L88.1434406,81.8932314 C88.1434406,81.8073915 88.1387993,81.7215516 88.1387993,81.6357117 C88.1387993,75.7220384 90.1577385,70.9660437 94.1376012,67.4953276 C98.0548072,64.0710114 103.167132,62.3333333 109.330698,62.3333333 C115.489623,62.3333333 120.599627,64.0710114 124.519154,67.4976476 C128.496696,70.9660437 130.513315,75.7243584 130.513315,81.6357117 C130.513315,87.5169052 128.508299,92.3494597 124.549322,95.9964957 C120.629795,99.6156916 115.510508,101.45081 109.330698,101.45081 L109.326057,101.45081 L109.326057,113.085597 L109.330698,113.085597 C116.278634,113.085597 122.251909,115.224634 127.083439,119.444709 Z" id="Fill-1" fill="url(#linearGradient-1)"></path>
                <path d="M96.7036705,94.3572734 C100.077314,97.4369642 104.551262,99 109.998827,99 L110.003519,99 C115.448738,99 119.92034,97.4369642 123.293983,94.3572734 C126.686395,91.2683064 128.333333,87.3050597 128.333333,82.2425861 C128.333333,77.1847505 126.695779,73.3142656 123.326828,70.4085032 C119.943801,67.4841883 115.460469,66 110.003519,66 C104.541877,66 100.056199,67.4841883 96.6731717,70.4085032 C93.3042208,73.3142656 91.6666667,77.1847505 91.6666667,82.2425861 C91.6666667,82.3283907 91.6690127,82.4165144 91.6713588,82.502319 C91.7276644,87.4395643 93.3722567,91.3216444 96.7036705,94.3572734" id="Fill-3" fill="url(#linearGradient-2)"></path>
                <path d="M125.717922,121.641952 C121.458141,117.968432 116.173328,116.111111 110.004628,116.111111 L110.002314,116.111111 C103.819731,116.111111 98.4770719,117.973001 94.1177955,121.641952 C90.0107278,125.283489 88,129.65379 88,134.974455 C88,135.273728 88.0092554,135.570717 88.0231384,135.865421 C88.1272613,138.309865 88.6687,140.562409 89.6405133,142.570509 C90.7326462,144.839045 92.2736643,146.858567 94.2265461,148.574247 C96.1817417,150.296781 98.5094657,151.644652 101.142617,152.583593 C103.810475,153.522534 106.793016,154 110.004628,154 C113.211611,154 116.191838,153.522534 118.862011,152.581308 C121.490534,151.644652 123.818258,150.296781 125.775768,148.574247 C127.726336,146.858567 129.269668,144.839045 130.359487,142.572793 C131.449306,140.320249 132,137.766147 132,134.974455 C132,129.55784 129.945309,125.198962 125.717922,121.641952" id="Fill-5" fill="url(#linearGradient-3)"></path>
                <mask id="mask-5" fill="white">
                    <use xlink:href="#path-4"></use>
                </mask>
                <g id="Clip-8"></g>
                <path d="M139.17549,162.21164 C131.174394,169.141978 121.35845,172.65814 110.005795,172.65814 C98.64155,172.65814 88.8279233,169.141978 80.8337811,162.209322 C72.9022198,155.348519 68.876176,146.587088 68.8669048,136.173037 C68.8669048,136.15913 68.864587,136.145223 68.864587,136.128998 C68.864587,129.706267 70.6145369,123.763328 74.0657627,118.469383 C77.1878589,113.685364 81.5685283,109.761263 87.1034693,106.787475 C83.1006037,103.920308 79.7791755,100.457457 77.2156726,96.4777277 C74.2790017,91.925492 72.7886469,87.0510767 72.7886469,81.9935522 C72.7886469,81.968056 72.7909647,81.9425597 72.7909647,81.9170635 C72.8095073,72.1149227 76.3557635,63.7822917 83.3393386,57.1555902 C90.2116586,50.6424628 99.1839186,47.3418602 110.005795,47.3418602 C120.820717,47.3418602 129.790659,50.6424628 136.662979,57.1555902 C143.662779,63.7985166 147.211353,72.1543259 147.211353,81.9935522 C147.211353,87.0487589 145.723316,91.9231742 142.786645,96.4800455 C140.223142,100.455139 136.90635,103.917991 132.905802,106.787475 C138.431472,109.758945 142.812141,113.683046 145.941191,118.467066 C149.390099,123.767963 151.137731,129.710902 151.137731,136.128998 C151.137731,146.561591 147.111687,155.336929 139.17549,162.21164 M217.865293,104.824266 L115.176839,2.13472966 C112.328245,-0.711576552 107.671755,-0.711576552 104.825479,2.13472966 L2.13470717,104.824266 C-0.711569055,107.670572 -0.711569055,112.329428 2.13470717,115.175734 L104.825479,217.86527 C107.671755,220.711577 112.328245,220.711577 115.176839,217.86527 L217.865293,115.175734 C220.711569,112.329428 220.711569,107.670572 217.865293,104.824266" id="Fill-7" fill="url(#linearGradient-6)" mask="url(#mask-5)"></path>
            </g>
            <path d="M0,181 L16.9056399,181 L30.0281996,230.622905 L31.9197397,239.763966 L32.8655098,239.763966 L35.3481562,230.622905 L47.5249458,192.396648 L62.4208243,192.396648 L74.7158351,230.622905 L77.0802603,239.645251 L78.0260304,239.645251 L79.7993492,230.622905 L92.0943601,181 L109,181 L86.537961,266 L71.1691974,266 L57.9284165,225.043296 L55.4457701,215.664804 L54.5,215.664804 L52.0173536,225.043296 L38.7765727,266 L23.4078091,266 L0,181 Z M174.056,251.084291 C171.38132,255.835273 167.782356,259.675592 163.259,262.605364 C158.735644,265.535136 153.209366,267 146.68,267 C142.274645,267 138.203685,266.227977 134.467,264.683908 C130.730315,263.139839 127.485347,260.982134 124.732,258.210728 C121.978653,255.439322 119.835008,252.173071 118.301,248.411877 C116.766992,244.650684 116,240.513433 116,236 C116,231.8033 116.747326,227.824412 118.242,224.063218 C119.736674,220.302025 121.82132,217.015978 124.496,214.204981 C127.17068,211.393983 130.336982,209.157096 133.995,207.494253 C137.653018,205.831409 141.684645,205 146.09,205 C150.731357,205 154.861315,205.772023 158.48,207.316092 C162.098685,208.860161 165.127321,210.998071 167.566,213.729885 C170.004679,216.461699 171.853327,219.688359 173.112,223.409962 C174.370673,227.131564 175,231.169838 175,235.524904 L175,236.950192 C174.921333,237.42529 174.882,237.86079 174.882,238.256705 C174.803333,238.65262 174.764,239.08812 174.764,239.563218 L131.222,239.563218 C131.536668,241.938709 132.185662,243.977642 133.169,245.680077 C134.152338,247.382512 135.371659,248.807785 136.827,249.955939 C138.282341,251.104093 139.875325,251.935502 141.606,252.450192 C143.336675,252.964881 145.106658,253.222222 146.916,253.222222 C150.456018,253.222222 153.386322,252.410608 155.707,250.787356 C158.027678,249.164104 159.85666,247.125172 161.194,244.670498 L174.056,251.084291 Z M160,229 C159.918424,227.952376 159.571733,226.783889 158.959916,225.494505 C158.348098,224.205122 157.450779,222.996343 156.267932,221.868132 C155.085086,220.739921 153.616746,219.81319 151.862869,219.087912 C150.108993,218.362634 148.008451,218 145.561181,218 C142.135004,218 139.11675,218.967023 136.506329,220.901099 C133.895908,222.835175 132.060484,225.534781 131,229 L160,229 Z M184,180 L199.74031,180 L199.74031,205.553279 L198.77907,213.872951 L199.74031,213.872951 C201.182178,211.416654 203.425049,209.316949 206.468992,207.57377 C209.512935,205.830592 213.277755,204.959016 217.763566,204.959016 C221.528443,204.959016 225.113032,205.73155 228.517442,207.276639 C231.921852,208.821729 234.925698,210.961052 237.52907,213.694672 C240.132442,216.428292 242.195083,219.696702 243.717054,223.5 C245.239026,227.303298 246,231.463092 246,235.979508 C246,240.495924 245.239026,244.655719 243.717054,248.459016 C242.195083,252.262314 240.132442,255.530724 237.52907,258.264344 C234.925698,260.997964 231.921852,263.137287 228.517442,264.682377 C225.113032,266.227467 221.528443,267 217.763566,267 C213.277755,267 209.512935,266.128424 206.468992,264.385246 C203.425049,262.642068 201.182178,260.542362 199.74031,258.086066 L198.77907,258.086066 L198.77907,265.098361 L184,265.098361 L184,180 Z M214.5,253 C216.550901,253 218.503171,252.607147 220.35687,251.821429 C222.210569,251.03571 223.847321,249.935721 225.267176,248.521429 C226.68703,247.107136 227.830784,245.378582 228.698473,243.335714 C229.566162,241.292847 230,239.014298 230,236.5 C230,233.985702 229.566162,231.707153 228.698473,229.664286 C227.830784,227.621418 226.68703,225.892864 225.267176,224.478571 C223.847321,223.064279 222.210569,221.96429 220.35687,221.178571 C218.503171,220.392853 216.550901,220 214.5,220 C212.449099,220 210.496829,220.373211 208.64313,221.119643 C206.789431,221.866075 205.152679,222.946421 203.732824,224.360714 C202.31297,225.775007 201.169216,227.503561 200.301527,229.546429 C199.433838,231.589296 199,233.90713 199,236.5 C199,239.09287 199.433838,241.410704 200.301527,243.453571 C201.169216,245.496439 202.31297,247.224993 203.732824,248.639286 C205.152679,250.053578 206.789431,251.133925 208.64313,251.880357 C210.496829,252.626789 212.449099,253 214.5,253 Z M284,181 L312.960656,181 C319.74211,181 325.845328,182.028854 331.270492,184.086592 C336.695656,186.144331 341.322932,189.052821 345.152459,192.812151 C348.981986,196.571481 351.913924,201.062823 353.948361,206.286313 C355.982797,211.509803 357,217.247641 357,223.5 C357,229.831503 355.982797,235.608912 353.948361,240.832402 C351.913924,246.055892 348.981986,250.527449 345.152459,254.247207 C341.322932,257.966965 336.695656,260.855669 331.270492,262.913408 C325.845328,264.971146 319.74211,266 312.960656,266 L284,266 L284,181 Z M311.882353,250 C316.509827,250 320.588218,249.342398 324.117647,248.027174 C327.647076,246.71195 330.588224,244.858708 332.941176,242.467391 C335.294129,240.076075 337.058818,237.186611 338.235294,233.798913 C339.411771,230.411215 340,226.644948 340,222.5 C340,218.355052 339.411771,214.588785 338.235294,211.201087 C337.058818,207.813389 335.294129,204.923925 332.941176,202.532609 C330.588224,200.141292 327.647076,198.28805 324.117647,196.972826 C320.588218,195.657602 316.509827,195 311.882353,195 L300,195 L300,250 L311.882353,250 Z M422.056,251.084291 C419.38132,255.835273 415.782356,259.675592 411.259,262.605364 C406.735644,265.535136 401.209366,267 394.68,267 C390.274645,267 386.203685,266.227977 382.467,264.683908 C378.730315,263.139839 375.485347,260.982134 372.732,258.210728 C369.978653,255.439322 367.835008,252.173071 366.301,248.411877 C364.766992,244.650684 364,240.513433 364,236 C364,231.8033 364.747326,227.824412 366.242,224.063218 C367.736674,220.302025 369.82132,217.015978 372.496,214.204981 C375.17068,211.393983 378.336982,209.157096 381.995,207.494253 C385.653018,205.831409 389.684645,205 394.09,205 C398.731357,205 402.861315,205.772023 406.48,207.316092 C410.098685,208.860161 413.127321,210.998071 415.566,213.729885 C418.004679,216.461699 419.853327,219.688359 421.112,223.409962 C422.370673,227.131564 423,231.169838 423,235.524904 L423,236.950192 C422.921333,237.42529 422.882,237.86079 422.882,238.256705 C422.803333,238.65262 422.764,239.08812 422.764,239.563218 L379.222,239.563218 C379.536668,241.938709 380.185662,243.977642 381.169,245.680077 C382.152338,247.382512 383.371659,248.807785 384.827,249.955939 C386.282341,251.104093 387.875325,251.935502 389.606,252.450192 C391.336675,252.964881 393.106658,253.222222 394.916,253.222222 C398.456018,253.222222 401.386322,252.410608 403.707,250.787356 C406.027678,249.164104 407.85666,247.125172 409.194,244.670498 L422.056,251.084291 Z M409,229 C408.918424,227.952376 408.571733,226.783889 407.959916,225.494505 C407.348098,224.205122 406.450779,222.996343 405.267932,221.868132 C404.085086,220.739921 402.616746,219.81319 400.862869,219.087912 C399.108993,218.362634 397.008451,218 394.561181,218 C391.135004,218 388.11675,218.967023 385.506329,220.901099 C382.895908,222.835175 381.060484,225.534781 380,229 L409,229 Z M427,208 L444.641166,208 L459.08561,244.930612 L459.91439,244.930612 L474.477231,208 L492,208 L467.018215,266 L451.744991,266 L427,208 Z M554.056,251.084291 C551.38132,255.835273 547.782356,259.675592 543.259,262.605364 C538.735644,265.535136 533.209366,267 526.68,267 C522.274645,267 518.203685,266.227977 514.467,264.683908 C510.730315,263.139839 507.485347,260.982134 504.732,258.210728 C501.978653,255.439322 499.835008,252.173071 498.301,248.411877 C496.766992,244.650684 496,240.513433 496,236 C496,231.8033 496.747326,227.824412 498.242,224.063218 C499.736674,220.302025 501.82132,217.015978 504.496,214.204981 C507.17068,211.393983 510.336982,209.157096 513.995,207.494253 C517.653018,205.831409 521.684645,205 526.09,205 C530.731357,205 534.861315,205.772023 538.48,207.316092 C542.098685,208.860161 545.127321,210.998071 547.566,213.729885 C550.004679,216.461699 551.853327,219.688359 553.112,223.409962 C554.370673,227.131564 555,231.169838 555,235.524904 L555,236.950192 C554.921333,237.42529 554.882,237.86079 554.882,238.256705 C554.803333,238.65262 554.764,239.08812 554.764,239.563218 L511.222,239.563218 C511.536668,241.938709 512.185662,243.977642 513.169,245.680077 C514.152338,247.382512 515.371659,248.807785 516.827,249.955939 C518.282341,251.104093 519.875325,251.935502 521.606,252.450192 C523.336675,252.964881 525.106658,253.222222 526.916,253.222222 C530.456018,253.222222 533.386322,252.410608 535.707,250.787356 C538.027678,249.164104 539.85666,247.125172 541.194,244.670498 L554.056,251.084291 Z M541,229 C540.918424,227.952376 540.571733,226.783889 539.959916,225.494505 C539.348098,224.205122 538.450779,222.996343 537.267932,221.868132 C536.085086,220.739921 534.616746,219.81319 532.862869,219.087912 C531.108993,218.362634 529.008451,218 526.561181,218 C523.135004,218 520.11675,218.967023 517.506329,220.901099 C514.895908,222.835175 513.060484,225.534781 512,229 L541,229 Z M566,266 L566,181 L581,181 L581,266 L566,266 Z M622,205 C626.530792,205 630.683955,205.772023 634.459615,207.316092 C638.235275,208.860161 641.494217,210.998071 644.236538,213.729885 C646.97886,216.461699 649.124992,219.72795 650.675,223.528736 C652.225008,227.329521 653,231.486567 653,236 C653,240.513433 652.225008,244.670479 650.675,248.471264 C649.124992,252.27205 646.97886,255.538301 644.236538,258.270115 C641.494217,261.001929 638.235275,263.139839 634.459615,264.683908 C630.683955,266.227977 626.530792,267 622,267 C617.469208,267 613.316045,266.227977 609.540385,264.683908 C605.764725,263.139839 602.505783,261.001929 599.763462,258.270115 C597.02114,255.538301 594.875008,252.27205 593.325,248.471264 C591.774992,244.670479 591,240.513433 591,236 C591,231.486567 591.774992,227.329521 593.325,223.528736 C594.875008,219.72795 597.02114,216.461699 599.763462,213.729885 C602.505783,210.998071 605.764725,208.860161 609.540385,207.316092 C613.316045,205.772023 617.469208,205 622,205 Z M622.5,253 C624.502594,253 626.445081,252.626789 628.327519,251.880357 C630.209958,251.133925 631.872086,250.053578 633.313953,248.639286 C634.755821,247.224993 635.897283,245.496439 636.738372,243.453571 C637.579462,241.410704 638,239.09287 638,236.5 C638,233.90713 637.579462,231.589296 636.738372,229.546429 C635.897283,227.503561 634.755821,225.775007 633.313953,224.360714 C631.872086,222.946421 630.209958,221.866075 628.327519,221.119643 C626.445081,220.373211 624.502594,220 622.5,220 C620.417302,220 618.45479,220.373211 616.612403,221.119643 C614.770017,221.866075 613.127914,222.946421 611.686047,224.360714 C610.244179,225.775007 609.102717,227.503561 608.261628,229.546429 C607.420538,231.589296 607,233.90713 607,236.5 C607,239.09287 607.420538,241.410704 608.261628,243.453571 C609.102717,245.496439 610.244179,247.224993 611.686047,248.639286 C613.127914,250.053578 614.770017,251.133925 616.612403,251.880357 C618.45479,252.626789 620.417302,253 622.5,253 Z M662,206.905817 L676.77907,206.905817 L676.77907,213.933518 L677.74031,213.933518 C679.182178,211.471825 681.425049,209.367506 684.468992,207.620499 C687.512935,205.873491 691.277755,205 695.763566,205 C699.528443,205 703.113032,205.77423 706.517442,207.322715 C709.921852,208.871199 712.925698,211.015222 715.52907,213.754848 C718.132442,216.494474 720.195083,219.770064 721.717054,223.581717 C723.239026,227.393371 724,231.562304 724,236.088643 C724,240.614981 723.239026,244.783914 721.717054,248.595568 C720.195083,252.407221 718.132442,255.682812 715.52907,258.422438 C712.925698,261.162064 709.921852,263.306086 706.517442,264.854571 C703.113032,266.403055 699.528443,267.177285 695.763566,267.177285 C691.277755,267.177285 687.512935,266.303795 684.468992,264.556787 C681.425049,262.809779 679.182178,260.70546 677.74031,258.243767 L676.77907,258.243767 L677.74031,266.581717 L677.74031,291 L662,291 L662,206.905817 Z M693.5,253 C695.550901,253 697.503171,252.607147 699.35687,251.821429 C701.210569,251.03571 702.847321,249.935721 704.267176,248.521429 C705.68703,247.107136 706.830784,245.378582 707.698473,243.335714 C708.566162,241.292847 709,239.014298 709,236.5 C709,233.985702 708.566162,231.707153 707.698473,229.664286 C706.830784,227.621418 705.68703,225.892864 704.267176,224.478571 C702.847321,223.064279 701.210569,221.96429 699.35687,221.178571 C697.503171,220.392853 695.550901,220 693.5,220 C691.449099,220 689.496829,220.373211 687.64313,221.119643 C685.789431,221.866075 684.152679,222.946421 682.732824,224.360714 C681.31297,225.775007 680.169216,227.503561 679.301527,229.546429 C678.433838,231.589296 678,233.90713 678,236.5 C678,239.09287 678.433838,241.410704 679.301527,243.453571 C680.169216,245.496439 681.31297,247.224993 682.732824,248.639286 C684.152679,250.053578 685.789431,251.133925 687.64313,251.880357 C689.496829,252.626789 691.449099,253 693.5,253 Z M734,207.897233 L748.658031,207.897233 L748.658031,215.486166 L749.611399,215.486166 C751.438697,212.640302 753.921401,210.347835 757.059585,208.608696 C760.19777,206.869557 763.673556,206 767.487047,206 C771.936119,206 775.670106,207.027658 778.689119,209.083004 C781.708133,211.13835 783.853189,213.667969 785.124352,216.671937 C786.95165,213.747021 789.533662,211.237165 792.870466,209.142292 C796.207271,207.04742 800.259044,206 805.025907,206 C808.601054,206 811.699469,206.573117 814.321244,207.719368 C816.943018,208.865618 819.107936,210.466393 820.816062,212.521739 C822.524188,214.577085 823.815194,217.047416 824.689119,219.932806 C825.563044,222.818196 826,225.960457 826,229.359684 L826,266 L810.388601,266 L810.388601,232.205534 C810.388601,224.300356 807.131293,220.347826 800.61658,220.347826 C798.55094,220.347826 796.723669,220.802367 795.134715,221.711462 C793.545761,222.620558 792.215031,223.845842 791.142487,225.387352 C790.069943,226.928861 789.235754,228.766788 788.639896,230.901186 C788.044038,233.035584 787.746114,235.328051 787.746114,237.778656 L787.746114,266 L772.134715,266 L772.134715,232.205534 C772.134715,224.300356 768.718514,220.347826 761.88601,220.347826 C759.899817,220.347826 758.151994,220.802367 756.642487,221.711462 C755.13298,222.620558 753.861836,223.845842 752.829016,225.387352 C751.796195,226.928861 751.00173,228.766788 750.445596,230.901186 C749.889462,233.035584 749.611399,235.328051 749.611399,237.778656 L749.611399,266 L734,266 L734,207.897233 Z M893.056,251.084291 C890.38132,255.835273 886.782356,259.675592 882.259,262.605364 C877.735644,265.535136 872.209366,267 865.68,267 C861.274645,267 857.203685,266.227977 853.467,264.683908 C849.730315,263.139839 846.485347,260.982134 843.732,258.210728 C840.978653,255.439322 838.835008,252.173071 837.301,248.411877 C835.766992,244.650684 835,240.513433 835,236 C835,231.8033 835.747326,227.824412 837.242,224.063218 C838.736674,220.302025 840.82132,217.015978 843.496,214.204981 C846.17068,211.393983 849.336982,209.157096 852.995,207.494253 C856.653018,205.831409 860.684645,205 865.09,205 C869.731357,205 873.861315,205.772023 877.48,207.316092 C881.098685,208.860161 884.127321,210.998071 886.566,213.729885 C889.004679,216.461699 890.853327,219.688359 892.112,223.409962 C893.370673,227.131564 894,231.169838 894,235.524904 L894,236.950192 C893.921333,237.42529 893.882,237.86079 893.882,238.256705 C893.803333,238.65262 893.764,239.08812 893.764,239.563218 L850.222,239.563218 C850.536668,241.938709 851.185662,243.977642 852.169,245.680077 C853.152338,247.382512 854.371659,248.807785 855.827,249.955939 C857.282341,251.104093 858.875325,251.935502 860.606,252.450192 C862.336675,252.964881 864.106658,253.222222 865.916,253.222222 C869.456018,253.222222 872.386322,252.410608 874.707,250.787356 C877.027678,249.164104 878.85666,247.125172 880.194,244.670498 L893.056,251.084291 Z M880,229 C879.918424,227.952376 879.571733,226.783889 878.959916,225.494505 C878.348098,224.205122 877.450779,222.996343 876.267932,221.868132 C875.085086,220.739921 873.616746,219.81319 871.862869,219.087912 C870.108993,218.362634 868.008451,218 865.561181,218 C862.135004,218 859.11675,218.967023 856.506329,220.901099 C853.895908,222.835175 852.060484,225.534781 851,229 L880,229 Z M919.781116,215.486166 L920.742489,215.486166 C922.585131,212.56125 925.068654,210.24902 928.193133,208.549407 C931.317612,206.849794 934.88267,206 938.888412,206 C942.573695,206 945.818298,206.592879 948.622318,207.778656 C951.426337,208.964433 953.729605,210.644258 955.532189,212.818182 C957.334773,214.992106 958.696705,217.600775 959.618026,220.644269 C960.539347,223.687762 961,227.067175 961,230.782609 L961,266 L945.257511,266 L945.257511,232.679842 C945.257511,228.490098 944.316175,225.387362 942.433476,223.371542 C940.550777,221.355721 937.806885,220.347826 934.201717,220.347826 C932.038616,220.347826 930.135917,220.802367 928.493562,221.711462 C926.851208,222.620558 925.449219,223.845842 924.287554,225.387352 C923.125888,226.928861 922.244638,228.747025 921.643777,230.841897 C921.042915,232.936769 920.742489,235.169949 920.742489,237.541502 L920.742489,266 L905,266 L905,207.897233 L919.781116,207.897233 L919.781116,215.486166 Z M979.358543,220.537037 L969,220.537037 L969,207.055556 L979.358543,207.055556 L979.358543,189 L995.137255,189 L995.137255,207.055556 L1009.59104,207.055556 L1009.59104,220.537037 L995.137255,220.537037 L995.137255,243.407407 C995.137255,244.771612 995.277776,246.035488 995.558824,247.199074 C995.839871,248.36266 996.381882,249.345675 997.184874,250.148148 C998.309063,251.432105 999.915022,252.074074 1002.0028,252.074074 C1003.36789,252.074074 1004.45191,251.933643 1005.2549,251.652778 C1006.05789,251.371912 1006.82072,250.990743 1007.54342,250.509259 L1012,264.351852 C1010.15312,265.234572 1008.16574,265.896603 1006.03782,266.337963 C1003.90989,266.779323 1001.56117,267 998.991597,267 C996.020527,267 993.350619,266.538585 990.981793,265.615741 C988.612967,264.692897 986.625592,263.42902 985.019608,261.824074 C981.245546,258.212945 979.358543,253.077194 979.358543,246.416667 L979.358543,220.537037 Z M1049,181 L1082.06667,181 C1085.68827,181 1089.07364,181.573784 1092.22286,182.721369 C1095.37208,183.868954 1098.10792,185.451806 1100.43048,187.469972 C1102.75303,189.488139 1104.58349,191.842631 1105.9219,194.53352 C1107.26032,197.224408 1107.92952,200.113113 1107.92952,203.199721 C1107.92952,207.710916 1106.84699,211.489975 1104.6819,214.537011 C1102.51681,217.584047 1099.82033,219.898968 1096.59238,221.481844 L1096.59238,222.431564 C1100.92256,224.01444 1104.40634,226.487646 1107.04381,229.851257 C1109.68128,233.214868 1111,237.38964 1111,242.375698 C1111,246.016312 1110.27175,249.280945 1108.81524,252.169693 C1107.35872,255.058441 1105.37081,257.531647 1102.85143,259.589385 C1100.33205,261.647124 1097.39938,263.229976 1094.05333,264.337989 C1090.70728,265.446002 1087.10542,266 1083.24762,266 L1049,266 L1049,181 Z M1081.64378,216 C1085.2747,216 1088.0751,215.005858 1090.04506,213.017544 C1092.01503,211.02923 1093,208.670579 1093,205.94152 C1093,203.212462 1092.03434,200.873304 1090.103,198.923977 C1088.17166,196.974649 1085.50645,196 1082.1073,196 L1066,196 L1066,216 L1081.64378,216 Z M1083.64706,250 C1087.64708,250 1090.70587,249.029901 1092.82353,247.089674 C1094.94119,245.149447 1096,242.657624 1096,239.61413 C1096,236.570637 1094.92158,234.040771 1092.76471,232.024457 C1090.60783,230.008142 1087.41179,229 1083.17647,229 L1066,229 L1066,250 L1083.64706,250 Z M1140.19083,262.444759 L1116,207 L1133.49725,207 L1148.05872,242.33711 L1148.88073,242.33711 L1162.85505,207 L1180,207 L1143.94862,291 L1127.39083,291 L1140.19083,262.444759 Z" id="Web-Development-By" fill="#BC13AF"></path>
        </g>
    </g>
</svg>