<?xml version="1.0" encoding="UTF-8"?>
<svg width="181px" height="45px" viewBox="0 0 181 45" version="1.1" xmlns="http://www.w3.org/2000/svg" xmlns:xlink="http://www.w3.org/1999/xlink">
    <!-- Generator: Sketch 52.6 (67491) - http://www.bohemiancoding.com/sketch -->
    <title>Logo</title>
    <desc>Created with Sketch.</desc>
    <defs>
        <linearGradient x1="49.9989433%" y1="0%" x2="49.9989433%" y2="99.9760651%" id="linearGradient-1">
            <stop stop-color="#7B9D63" offset="0%"></stop>
            <stop stop-color="#7B9D63" offset="25%"></stop>
            <stop stop-color="#6B714B" offset="100%"></stop>
        </linearGradient>
    </defs>
    <g id="Page-1" stroke="none" stroke-width="1" fill="none" fill-rule="evenodd">
        <g id="Artboard" transform="translate(-29.000000, -84.000000)" fill="url(#linearGradient-1)" fill-rule="nonzero">
            <g id="Logo" transform="translate(29.000000, 84.000000)">
                <path d="M4.18395008,1.7556247 L4.18395008,25.6127334 L12.342115,25.6127334 L12.342115,29.5548109 L0,29.5548109 L0,1.7556247 L4.18395008,1.7556247 Z M15.8861035,15.520584 C15.848095,11.7068404 17.4086993,8.05187057 20.1883658,5.44459071 C22.8951465,2.69633489 26.605786,1.17498423 30.460017,1.23324557 C38.408019,1.28320277 44.8388418,7.72302279 44.8887292,15.6821446 C44.9485132,19.5268173 43.3864381,23.2184722 40.5864669,25.8496888 C35.0774725,31.257163 26.3254727,31.4620231 20.5701916,26.3182145 C17.4474662,23.571685 15.8861035,19.9724749 15.8861035,15.520584 Z M20.1076984,15.5744375 C20.016591,18.4254063 21.1409714,21.1805656 23.1999494,23.1516276 C25.1211585,25.0655314 27.722914,26.1367801 30.4328577,26.1297105 C33.1428013,26.1226408 35.7389478,25.0378319 37.6501729,23.1139301 C41.6405721,18.957627 41.6547951,12.391647 37.6824399,8.21804691 C35.7856379,6.22598701 33.1380045,5.12712879 30.3901053,5.19147918 C27.6373989,5.13504793 24.9861852,6.23215579 23.0762594,8.21804691 C21.107712,10.1576024 20.0274999,12.8258532 20.0915649,15.5905936 L20.1076984,15.5744375 Z M53.6545886,15.4236477 L60.8770114,33.9923408 L68.4059705,14.066539 L75.6283933,33.9923408 L83.3025536,15.4236477 L87.8468182,15.4236477 L75.4778141,44.9676879 L68.3145474,25.2896123 L60.8770114,45 L49.0888128,15.4398037 L53.6545886,15.4236477 Z M108.024428,5.68693155 L96.8977025,5.68693155 L96.8977025,12.3647678 L107.696381,12.3647678 L107.696381,16.30146 L96.8977025,16.30146 L96.8977025,25.6127334 L108.024428,25.6127334 L108.024428,29.5548109 L92.7137524,29.5548109 L92.7137524,1.7556247 L108.024428,1.7556247 L108.024428,5.68693155 Z M131.364201,22.7800383 L119.48458,22.7800383 L116.397706,29.5278842 L111.885709,29.5278842 L125.615303,0 L138.855515,29.5278842 L134.252095,29.5278842 L131.364201,22.7800383 Z M129.654052,18.8379607 L125.540014,9.40282432 L121.237751,18.8487315 L129.654052,18.8379607 Z M152.644266,17.6908808 L161.248791,29.5386549 L156.123721,29.5386549 L148.20218,18.1701771 L147.449284,18.1701771 L147.449284,29.5386549 L143.259957,29.5386549 L143.259957,1.7556247 L148.164536,1.7556247 C151.832214,1.7556247 154.479898,2.44674485 156.107587,3.82898516 C157.888857,5.33452894 158.880309,7.57636144 158.796501,9.90904739 C158.839595,11.7452008 158.242491,13.5390184 157.107863,14.9820488 C155.991884,16.3930834 154.408615,17.3577457 152.644266,17.7016515 L152.644266,17.6908808 Z M147.433151,14.5027525 L148.77223,14.5027525 C152.737482,14.5027525 154.720108,12.9858784 154.720108,9.95213021 C154.720108,7.10866443 152.79126,5.68693155 148.933565,5.68693155 L147.443907,5.68693155 L147.433151,14.5027525 Z M180.275546,5.88618956 L176.882136,7.90031115 C176.461887,7.04380633 175.837634,6.30401202 175.064431,5.74617042 C173.395802,4.85237182 171.360044,5.01436632 169.853315,6.16084251 C169.112089,6.75321191 168.687019,7.65625667 168.70246,8.60579225 C168.70246,9.96290091 169.709907,11.0543322 171.724799,11.8800862 L174.489003,13.0163954 C176.744105,13.9247247 178.391513,15.0376975 179.431227,16.3553135 C180.498593,17.7401826 181.051837,19.4536404 180.996175,21.2021302 C181.066628,23.5780348 180.140195,25.8748951 178.441706,27.535304 C176.747313,29.2104401 174.443727,30.1207156 172.063603,30.0556486 C169.873134,30.1311165 167.737631,29.3597943 166.099591,27.9015079 C164.554362,26.4654141 163.589938,24.4566778 163.20632,21.8752992 L167.444048,20.938248 C167.63765,22.5538535 167.981831,23.6955481 168.45508,24.3202489 C170.104396,26.3856897 173.112625,26.7230827 175.177365,25.0741982 C175.279544,24.9934179 175.381722,24.9018669 175.478523,24.8103159 C176.34495,23.9238649 176.812995,22.7219724 176.77458,21.4821685 C176.780241,20.9794941 176.703949,20.4792632 176.548711,20.0011967 C176.393213,19.5473754 176.15629,19.1257927 175.849593,18.7571805 C175.492638,18.3410239 175.077905,17.9783051 174.618071,17.6801101 C174.047231,17.3153185 173.446314,17.0000267 172.821876,16.7376735 L170.132962,15.6175203 C166.336216,14.0126855 164.437843,11.662877 164.437843,8.56809478 C164.405097,6.55047661 165.282251,4.62555599 166.825598,3.32814744 C168.47029,1.89542289 170.594653,1.13758397 172.773476,1.20631881 C176.000173,1.20631881 178.500863,2.77166108 180.275546,5.90234562 L180.275546,5.88618956 Z" id="Shape"></path>
            </g>
        </g>
    </g>
</svg>