<?xml version="1.0" encoding="UTF-8"?>
<svg width="250px" height="91px" viewBox="0 0 250 91" version="1.1" xmlns="http://www.w3.org/2000/svg" xmlns:xlink="http://www.w3.org/1999/xlink">
    <!-- Generator: Sketch 52.6 (67491) - http://www.bohemiancoding.com/sketch -->
    <title>Artboard Copy</title>
    <desc>Created with Sketch.</desc>
    <defs>
        <linearGradient x1="49.9989433%" y1="0%" x2="49.9989433%" y2="99.9760651%" id="linearGradient-1">
            <stop stop-color="#FFFFFF" offset="0%"></stop>
            <stop stop-color="#EFEFEF" offset="25%"></stop>
            <stop stop-color="#D8DDC0" offset="100%"></stop>
        </linearGradient>
        <path d="M5.31662165,2.22379129 L5.31662165,32.4427956 L15.6833505,32.4427956 L15.6833505,37.4360938 L0,37.4360938 L0,2.22379129 L5.31662165,2.22379129 Z M20.1867614,19.6594064 C20.1384633,14.8286645 22.1215517,10.1990361 25.6537245,6.89648157 C29.0932801,3.41535753 33.8084573,1.48831336 38.706099,1.56211106 C48.80577,1.62539017 56.9775338,9.78249553 57.0409266,19.8640498 C57.1168952,24.7339685 55.1319379,29.4100647 51.5739635,32.7429392 C44.5735839,39.5924064 33.4522581,39.8518959 26.1389175,33.336405 C22.1708134,29.8574677 20.1867614,25.2984682 20.1867614,19.6594064 Z M25.5512189,19.7276209 C25.4354471,23.3388479 26.8642178,26.8287164 29.4805987,29.3253949 C31.9219142,31.7496731 35.2280123,33.1065881 38.6715871,33.0976332 C42.1151618,33.0886784 45.4141326,31.7145871 47.8427611,29.2776448 C52.9134342,24.0129942 52.9315076,15.6960862 47.8837634,10.4095261 C45.4734625,7.88625021 42.1090665,6.49436313 38.6172608,6.57587362 C35.1193466,6.50439405 31.7504011,7.894064 29.3234235,10.4095261 C26.8219544,12.8662963 25.4493093,16.2460807 25.5307178,19.7480852 L25.5512189,19.7276209 Z M68.179864,19.5366204 L77.3575284,43.0569651 L86.9247138,17.8176161 L96.1023782,43.0569651 L105.854074,19.5366204 L111.628553,19.5366204 L95.9110345,56.9590713 L86.8085409,32.0335089 L77.3575284,57 L62.3780494,19.5570847 L68.179864,19.5366204 Z M137.268611,7.20344663 L123.129677,7.20344663 L123.129677,15.6620393 L136.851755,15.6620393 L136.851755,20.648516 L123.129677,20.648516 L123.129677,32.4427956 L137.268611,32.4427956 L137.268611,37.4360938 L117.813056,37.4360938 L117.813056,2.22379129 L137.268611,2.22379129 L137.268611,7.20344663 Z M166.926886,28.8547152 L151.831234,28.8547152 L147.908688,37.4019866 L142.17521,37.4019866 L159.621656,0 L176.446235,37.4019866 L170.596585,37.4019866 L166.926886,28.8547152 Z M164.753768,23.8614169 L159.525984,11.9102441 L154.059021,23.8750598 L164.753768,23.8614169 Z M193.967852,22.408449 L204.901778,37.4156295 L198.389258,37.4156295 L188.323213,23.0155577 L187.366494,23.0155577 L187.366494,37.4156295 L182.043039,37.4156295 L182.043039,2.22379129 L188.275377,2.22379129 C192.935963,2.22379129 196.300423,3.09921015 198.368757,4.85004787 C200.632249,6.75706999 201.892106,9.59672449 201.785609,12.55146 C201.840369,14.8772543 201.081618,17.1494233 199.639826,18.9772618 C198.221732,20.7645723 196.209842,21.9864779 193.967852,22.4220919 L193.967852,22.408449 Z M187.345993,18.3701532 L189.047585,18.3701532 C194.086303,18.3701532 196.605662,16.4487793 196.605662,12.6060316 C196.605662,9.00430828 194.15464,7.20344663 189.252596,7.20344663 L187.35966,7.20344663 L187.345993,18.3701532 Z M229.079423,7.45584011 L224.767356,10.0070608 C224.233337,8.92215468 223.440087,7.98508189 222.457564,7.27848253 C220.337206,6.14633764 217.750332,6.35153067 215.835705,7.80373384 C214.893814,8.55406842 214.353671,9.69792511 214.373292,10.9006702 C214.373292,12.6196745 215.653472,14.0021541 218.213834,15.0481091 L221.726357,16.4874342 C224.591957,17.6379847 226.685348,19.0477501 228.006531,20.7167305 C229.362853,22.470898 230.06587,24.6412779 229.995139,26.8560316 C230.084665,29.8655107 228.90743,32.7748671 226.74913,34.8780517 C224.596033,36.9998907 221.668824,38.1529064 218.644357,38.0704883 C215.860888,38.1660809 213.147265,37.1890728 211.065779,35.34191 C209.102228,33.5228578 207.876717,30.9784586 207.389247,27.7087123 L212.774205,26.5217808 C213.020219,28.5682145 213.457576,30.0143609 214.058942,30.8056486 C216.154758,33.4218736 219.977369,33.8492381 222.601071,31.760651 C222.730912,31.6583293 222.860752,31.5423648 222.983759,31.4264002 C224.084744,30.3035622 224.679496,28.781165 224.630681,27.2107468 C224.637875,26.5740258 224.540929,25.9404 224.343666,25.3348492 C224.146072,24.7600088 223.845009,24.2260041 223.455284,23.7590953 C223.001695,23.2319637 222.474686,22.7725198 221.890366,22.3948061 C221.164989,21.9327368 220.401394,21.5333671 219.607909,21.2010531 L216.191057,19.7821924 C211.366462,17.7494016 208.954165,14.7729775 208.954165,10.8529201 C208.912555,8.29727037 210.02717,5.85903759 211.988329,4.21565342 C214.07827,2.40086899 216.777736,1.44093969 219.546406,1.52800383 C223.646628,1.52800383 226.8243,3.5107707 229.079423,7.47630445 L229.079423,7.45584011 Z" id="path-2"></path>
        <filter x="-4.6%" y="-20.9%" width="109.1%" height="142.4%" filterUnits="objectBoundingBox" id="filter-3">
            <feMorphology radius="0.5" operator="dilate" in="SourceAlpha" result="shadowSpreadOuter1"></feMorphology>
            <feOffset dx="0" dy="0" in="shadowSpreadOuter1" result="shadowOffsetOuter1"></feOffset>
            <feGaussianBlur stdDeviation="3" in="shadowOffsetOuter1" result="shadowBlurOuter1"></feGaussianBlur>
            <feColorMatrix values="0 0 0 0 0.221971992   0 0 0 0 0.217542996   0 0 0 0 0.217542996  0 0 0 0.566610585 0" type="matrix" in="shadowBlurOuter1"></feColorMatrix>
        </filter>
    </defs>
    <g id="Artboard-Copy" stroke="none" stroke-width="1" fill="none" fill-rule="evenodd">
        <g id="Logo" transform="translate(10.000000, 19.000000)" fill-rule="nonzero">
            <g id="Shape">
                <use fill="black" fill-opacity="1" filter="url(#filter-3)" xlink:href="#path-2"></use>
                <use fill="url(#linearGradient-1)" xlink:href="#path-2"></use>
            </g>
        </g>
    </g>
</svg>