<?xml version="1.0" encoding="UTF-8"?>
<svg width="451px" height="321px" viewBox="0 0 451 321" version="1.1" xmlns="http://www.w3.org/2000/svg" xmlns:xlink="http://www.w3.org/1999/xlink">
    <!-- Generator: Sketch 52.6 (67491) - http://www.bohemiancoding.com/sketch -->
    <title>Artboard</title>
    <desc>Created with Sketch.</desc>
    <defs>
        <linearGradient x1="49.9989433%" y1="0%" x2="49.9989433%" y2="99.9760651%" id="linearGradient-1">
            <stop stop-color="#7B9D63" offset="0%"></stop>
            <stop stop-color="#7B9D63" offset="25%"></stop>
            <stop stop-color="#6B714B" offset="100%"></stop>
        </linearGradient>
    </defs>
    <g id="Artboard" stroke="none" stroke-width="1" fill="none" fill-rule="evenodd">
        <g id="Logo-Copy" transform="translate(82.000000, 125.000000)" fill="url(#linearGradient-1)" fill-rule="nonzero">
            <path d="M6.65733493,2.76998564 L6.65733493,40.4112015 L19.6382824,40.4112015 L19.6382824,46.6309239 L0,46.6309239 L0,2.76998564 L6.65733493,2.76998564 Z M25.277336,24.4880326 C25.2168584,18.4707926 27.7000299,12.7040625 32.1229246,8.59035424 C36.4298464,4.25421727 42.3340683,1.85386401 48.4667674,1.94578746 C61.113312,2.02460881 71.3457814,12.1852137 71.4251603,24.7429392 C71.5202862,30.8089784 69.0347745,36.6335894 64.5795716,40.7850646 C55.813879,49.3168571 41.8880449,49.6400808 32.7304706,41.5242939 C27.7617142,37.1908808 25.277336,31.512127 25.277336,24.4880326 Z M31.9945698,24.5730014 C31.8496033,29.0711966 33.6386727,33.4182257 36.9148366,36.5281235 C39.9717882,39.5478385 44.111598,41.2380308 48.4235525,41.2268765 C52.735507,41.2157222 56.8663921,39.5041348 59.9074574,36.4686453 C66.2568219,29.9109226 66.279453,19.5512653 59.9587993,12.9662518 C56.9406835,9.82322395 52.7278746,8.08946986 48.3555266,8.19100048 C43.9755297,8.10196452 39.757024,9.83295691 36.718026,12.9662518 C33.5857516,16.0264393 31.8669612,20.2363462 31.9688989,24.5984921 L31.9945698,24.5730014 Z M85.3730471,24.3350886 L96.865079,53.63236 L108.844859,22.1938727 L120.336891,53.63236 L132.54771,24.3350886 L139.778363,24.3350886 L120.097295,70.9490187 L108.69939,39.9013882 L96.865079,71 L78.1081662,24.3605792 L85.3730471,24.3350886 Z M171.884173,8.97271422 L154.17977,8.97271422 L154.17977,19.5088559 L171.362197,19.5088559 L171.362197,25.7200814 L154.17977,25.7200814 L154.17977,40.4112015 L171.884173,40.4112015 L171.884173,46.6309239 L147.522435,46.6309239 L147.522435,2.76998564 L171.884173,2.76998564 L171.884173,8.97271422 Z M209.021492,35.9418382 L190.11911,35.9418382 L185.2074,46.5884394 L178.028089,46.5884394 L199.874074,0 L220.941373,46.5884394 L213.616593,46.5884394 L209.021492,35.9418382 Z M206.30037,29.7221158 L199.754276,14.8355673 L192.908687,29.7391096 L206.30037,29.7221158 Z M242.881484,27.9122786 L256.572661,46.6054332 L248.417854,46.6054332 L235.813414,28.6685017 L234.615436,28.6685017 L234.615436,46.6054332 L227.949544,46.6054332 L227.949544,2.76998564 L235.753515,2.76998564 C241.589379,2.76998564 245.802269,3.86041966 248.392183,6.0412877 C251.226468,8.41670122 252.804028,11.9538147 252.670676,15.6342748 C252.739245,18.5313168 251.789157,21.3615624 249.983782,23.6383437 C248.208081,25.8646427 245.688846,27.3866655 242.881484,27.9292724 L242.881484,27.9122786 Z M234.589765,22.8821206 L236.720454,22.8821206 C243.029805,22.8821206 246.184481,20.4888304 246.184481,15.7022499 C246.184481,11.2158928 243.115375,8.97271422 236.977164,8.97271422 L234.606879,8.97271422 L234.589765,22.8821206 Z M286.847277,9.28709909 L281.447819,12.4649354 C280.779135,11.1135611 279.785848,9.94633007 278.555558,9.06617999 C275.900502,7.65596443 272.661285,7.91155575 270.263839,9.7204404 C269.084428,10.6550677 268.408075,12.0798716 268.432644,13.5780278 C268.432644,15.7192437 270.035652,17.4412797 273.24167,18.744136 L277.63996,20.5369794 C281.22819,21.9701213 283.84948,23.7261449 285.50383,25.8050503 C287.202181,27.9900659 288.082481,30.6935216 287.993913,33.4522499 C288.106015,37.2008993 286.631913,40.8248344 283.929345,43.4445907 C281.233294,46.0875832 277.567919,47.5237957 273.78076,47.4211345 C270.295373,47.540206 266.897445,46.323231 264.291063,44.0223791 C261.832355,41.7565422 260.297803,38.5872028 259.687404,34.5143609 L266.430309,33.0359023 C266.738361,35.5849689 267.286008,37.3863092 268.039022,38.3719483 C270.663349,41.6307548 275.449923,42.163086 278.735255,39.5615127 C278.897837,39.4340594 279.06042,39.2896123 279.214446,39.1451652 C280.59307,37.7465424 281.337804,35.8502231 281.276679,33.8940881 C281.285687,33.1009795 281.164294,32.3117264 280.917286,31.5574438 C280.669864,30.8414145 280.292881,30.1762507 279.804878,29.5946625 C279.236905,28.93806 278.576998,28.3657703 277.845328,27.8952848 C276.93703,27.3197247 275.980876,26.8222643 274.987295,26.4083293 L270.708802,24.6409765 C264.66757,22.1089038 261.646954,18.4014281 261.646954,13.5185495 C261.594851,10.3351964 262.990543,7.29809945 265.446256,5.25107707 C268.063225,2.99055611 271.443426,1.79485471 274.910282,1.90330302 C280.044473,1.90330302 284.023472,4.37306526 286.847277,9.31258976 L286.847277,9.28709909 Z" id="Shape"></path>
        </g>
    </g>
</svg>